%TF.GenerationSoftware,KiCad,Pcbnew,8.0.7*%
%TF.CreationDate,2026-02-24T14:52:02+05:30*%
%TF.ProjectId,IR Sensor,49522053-656e-4736-9f72-2e6b69636164,rev?*%
%TF.SameCoordinates,Original*%
%TF.FileFunction,Copper,L1,Top*%
%TF.FilePolarity,Positive*%
%FSLAX46Y46*%
G04 Gerber Fmt 4.6, Leading zero omitted, Abs format (unit mm)*
G04 Created by KiCad (PCBNEW 8.0.7) date 2026-02-24 14:52:02*
%MOMM*%
%LPD*%
G01*
G04 APERTURE LIST*
G04 Aperture macros list*
%AMRoundRect*
0 Rectangle with rounded corners*
0 $1 Rounding radius*
0 $2 $3 $4 $5 $6 $7 $8 $9 X,Y pos of 4 corners*
0 Add a 4 corners polygon primitive as box body*
4,1,4,$2,$3,$4,$5,$6,$7,$8,$9,$2,$3,0*
0 Add four circle primitives for the rounded corners*
1,1,$1+$1,$2,$3*
1,1,$1+$1,$4,$5*
1,1,$1+$1,$6,$7*
1,1,$1+$1,$8,$9*
0 Add four rect primitives between the rounded corners*
20,1,$1+$1,$2,$3,$4,$5,0*
20,1,$1+$1,$4,$5,$6,$7,0*
20,1,$1+$1,$6,$7,$8,$9,0*
20,1,$1+$1,$8,$9,$2,$3,0*%
G04 Aperture macros list end*
%TA.AperFunction,ComponentPad*%
%ADD10C,1.440000*%
%TD*%
%TA.AperFunction,SMDPad,CuDef*%
%ADD11RoundRect,0.250000X-0.400000X-0.625000X0.400000X-0.625000X0.400000X0.625000X-0.400000X0.625000X0*%
%TD*%
%TA.AperFunction,ComponentPad*%
%ADD12R,1.800000X1.800000*%
%TD*%
%TA.AperFunction,ComponentPad*%
%ADD13C,1.800000*%
%TD*%
%TA.AperFunction,SMDPad,CuDef*%
%ADD14RoundRect,0.250000X0.400000X0.625000X-0.400000X0.625000X-0.400000X-0.625000X0.400000X-0.625000X0*%
%TD*%
%TA.AperFunction,SMDPad,CuDef*%
%ADD15RoundRect,0.250000X-0.625000X0.375000X-0.625000X-0.375000X0.625000X-0.375000X0.625000X0.375000X0*%
%TD*%
%TA.AperFunction,ComponentPad*%
%ADD16R,1.700000X1.700000*%
%TD*%
%TA.AperFunction,ComponentPad*%
%ADD17O,1.700000X1.700000*%
%TD*%
%TA.AperFunction,SMDPad,CuDef*%
%ADD18R,1.600000X1.600000*%
%TD*%
%TA.AperFunction,SMDPad,CuDef*%
%ADD19RoundRect,0.250000X0.625000X-0.400000X0.625000X0.400000X-0.625000X0.400000X-0.625000X-0.400000X0*%
%TD*%
%TA.AperFunction,ViaPad*%
%ADD20C,0.300000*%
%TD*%
%TA.AperFunction,ViaPad*%
%ADD21C,0.600000*%
%TD*%
%TA.AperFunction,Conductor*%
%ADD22C,1.000000*%
%TD*%
G04 APERTURE END LIST*
D10*
%TO.P,RV1,1,1*%
%TO.N,+5V*%
X144476868Y-57465593D03*
%TO.P,RV1,2,2*%
%TO.N,Net-(U1A--)*%
X141936868Y-57465593D03*
%TO.P,RV1,3,3*%
%TO.N,GND*%
X139396868Y-57465593D03*
%TD*%
D11*
%TO.P,R1,1*%
%TO.N,Net-(D1-K)*%
X119754167Y-67547821D03*
%TO.P,R1,2*%
%TO.N,GND*%
X122854167Y-67547821D03*
%TD*%
D12*
%TO.P,D1,1,K*%
%TO.N,Net-(D1-K)*%
X114161931Y-64502840D03*
D13*
%TO.P,D1,2,A*%
%TO.N,+5V*%
X114161931Y-67042840D03*
%TD*%
D12*
%TO.P,D2,1,K*%
%TO.N,+5V*%
X114189867Y-57882102D03*
D13*
%TO.P,D2,2,A*%
%TO.N,Net-(D2-A)*%
X114189867Y-60422102D03*
%TD*%
D14*
%TO.P,R2,1*%
%TO.N,Net-(D2-A)*%
X121401516Y-63133996D03*
%TO.P,R2,2*%
%TO.N,GND*%
X118301516Y-63133996D03*
%TD*%
D15*
%TO.P,D3,1,K*%
%TO.N,GND*%
X143941051Y-64698862D03*
%TO.P,D3,2,A*%
%TO.N,OUT*%
X143941051Y-67498862D03*
%TD*%
D16*
%TO.P,J1,1,Pin_1*%
%TO.N,+5V*%
X148760415Y-59704166D03*
D17*
%TO.P,J1,2,Pin_2*%
%TO.N,GND*%
X148760415Y-62244166D03*
%TO.P,J1,3,Pin_3*%
%TO.N,OUT*%
X148760415Y-64784166D03*
%TD*%
D18*
%TO.P,LM358,1*%
%TO.N,Net-(R3-Pad2)*%
X126852641Y-59755339D03*
%TO.P,LM358,2,-*%
%TO.N,Net-(U1A--)*%
X126852641Y-62295339D03*
%TO.P,LM358,3,+*%
%TO.N,Net-(D2-A)*%
X126852641Y-64835339D03*
%TO.P,LM358,4,V-*%
%TO.N,GND*%
X126852641Y-67375339D03*
%TO.P,LM358,5*%
%TO.N,N/C*%
X134472641Y-67375339D03*
%TO.P,LM358,6*%
X134472641Y-64835339D03*
%TO.P,LM358,7*%
X134472641Y-62295339D03*
%TO.P,LM358,8,V+*%
%TO.N,+5V*%
X134472641Y-59755339D03*
%TD*%
D19*
%TO.P,R3,1*%
%TO.N,OUT*%
X139336645Y-67608166D03*
%TO.P,R3,2*%
%TO.N,Net-(R3-Pad2)*%
X139336645Y-64508166D03*
%TD*%
D20*
%TO.N,Net-(R3-Pad2)*%
X136670454Y-62307291D03*
X131720117Y-60670454D03*
D21*
%TO.N,Net-(U1A--)*%
X123000000Y-61000000D03*
%TD*%
D22*
%TO.N,Net-(D1-K)*%
X114161931Y-64502840D02*
X116709186Y-64502840D01*
X116709186Y-64502840D02*
X119754167Y-67547821D01*
%TO.N,+5V*%
X132599404Y-57882102D02*
X134472641Y-59755339D01*
X148709242Y-59755339D02*
X148760415Y-59704166D01*
X134472641Y-59755339D02*
X148709242Y-59755339D01*
X114189867Y-57882102D02*
X132599404Y-57882102D01*
%TO.N,Net-(D2-A)*%
X123102859Y-64835339D02*
X121401516Y-63133996D01*
X126836746Y-64819444D02*
X126852641Y-64835339D01*
X118689622Y-60422102D02*
X121401516Y-63133996D01*
X114189867Y-60422102D02*
X118689622Y-60422102D01*
X126852641Y-64835339D02*
X123102859Y-64835339D01*
%TO.N,OUT*%
X139336645Y-67608166D02*
X143831747Y-67608166D01*
X143941051Y-67498862D02*
X146045719Y-67498862D01*
X146045719Y-67498862D02*
X148760415Y-64784166D01*
X143831747Y-67608166D02*
X143941051Y-67498862D01*
%TO.N,Net-(R3-Pad2)*%
X137779092Y-62307291D02*
X139336645Y-63864844D01*
X139336645Y-63864844D02*
X139336645Y-64508166D01*
X130805002Y-59755339D02*
X131720117Y-60670454D01*
X126852641Y-59755339D02*
X130805002Y-59755339D01*
X136670454Y-62307291D02*
X137779092Y-62307291D01*
%TO.N,Net-(U1A--)*%
X124295339Y-62295339D02*
X123000000Y-61000000D01*
X126852641Y-62295339D02*
X124295339Y-62295339D01*
%TD*%
%TA.AperFunction,Conductor*%
%TO.N,GND*%
G36*
X140418451Y-58133622D02*
G01*
X140457454Y-58077922D01*
X140549942Y-57879579D01*
X140596114Y-57827140D01*
X140663308Y-57807987D01*
X140730189Y-57828202D01*
X140775524Y-57881367D01*
X140777359Y-57885898D01*
X140868892Y-58082190D01*
X140868894Y-58082194D01*
X140992187Y-58258275D01*
X141144185Y-58410273D01*
X141302697Y-58521264D01*
X141346322Y-58575841D01*
X141353516Y-58645339D01*
X141321993Y-58707694D01*
X141261763Y-58743108D01*
X141231574Y-58746839D01*
X140087341Y-58746839D01*
X140020302Y-58727154D01*
X139974547Y-58674350D01*
X139964603Y-58605192D01*
X139993628Y-58541636D01*
X140016216Y-58521265D01*
X140064898Y-58487176D01*
X139443315Y-57865593D01*
X139449529Y-57865593D01*
X139551262Y-57838334D01*
X139642474Y-57785673D01*
X139716948Y-57711199D01*
X139769609Y-57619987D01*
X139796868Y-57518254D01*
X139796868Y-57512039D01*
X140418451Y-58133622D01*
G37*
%TD.AperFunction*%
%TA.AperFunction,Conductor*%
G36*
X149004418Y-55500816D02*
G01*
X149204561Y-55515130D01*
X149222063Y-55517647D01*
X149413797Y-55559355D01*
X149430755Y-55564334D01*
X149614609Y-55632909D01*
X149630701Y-55640259D01*
X149802904Y-55734288D01*
X149817784Y-55743849D01*
X149974867Y-55861441D01*
X149988237Y-55873027D01*
X150126972Y-56011762D01*
X150138558Y-56025132D01*
X150256146Y-56182210D01*
X150265711Y-56197095D01*
X150359740Y-56369298D01*
X150367090Y-56385390D01*
X150435662Y-56569236D01*
X150440646Y-56586212D01*
X150482351Y-56777931D01*
X150484869Y-56795442D01*
X150499184Y-56995580D01*
X150499500Y-57004427D01*
X150499500Y-67995572D01*
X150499184Y-68004419D01*
X150484869Y-68204557D01*
X150482351Y-68222068D01*
X150440646Y-68413787D01*
X150435662Y-68430763D01*
X150367090Y-68614609D01*
X150359740Y-68630701D01*
X150265711Y-68802904D01*
X150256146Y-68817789D01*
X150138558Y-68974867D01*
X150126972Y-68988237D01*
X149988237Y-69126972D01*
X149974867Y-69138558D01*
X149817789Y-69256146D01*
X149802904Y-69265711D01*
X149630701Y-69359740D01*
X149614609Y-69367090D01*
X149430763Y-69435662D01*
X149413787Y-69440646D01*
X149222068Y-69482351D01*
X149204557Y-69484869D01*
X149023779Y-69497799D01*
X149004417Y-69499184D01*
X148995572Y-69499500D01*
X113004428Y-69499500D01*
X112995582Y-69499184D01*
X112973622Y-69497613D01*
X112795442Y-69484869D01*
X112777931Y-69482351D01*
X112586212Y-69440646D01*
X112569236Y-69435662D01*
X112385390Y-69367090D01*
X112369298Y-69359740D01*
X112197095Y-69265711D01*
X112182210Y-69256146D01*
X112025132Y-69138558D01*
X112011762Y-69126972D01*
X111873027Y-68988237D01*
X111861441Y-68974867D01*
X111814623Y-68912326D01*
X111743849Y-68817784D01*
X111734288Y-68802904D01*
X111640259Y-68630701D01*
X111632909Y-68614609D01*
X111604559Y-68538600D01*
X111564334Y-68430755D01*
X111559355Y-68413797D01*
X111517647Y-68222063D01*
X111515130Y-68204556D01*
X111506411Y-68082654D01*
X111500816Y-68004418D01*
X111500500Y-67995572D01*
X111500500Y-67042834D01*
X112748604Y-67042834D01*
X112748604Y-67042845D01*
X112767879Y-67275462D01*
X112825182Y-67501747D01*
X112918946Y-67715508D01*
X113046617Y-67910924D01*
X113182665Y-68058710D01*
X113204711Y-68082658D01*
X113388914Y-68226030D01*
X113388916Y-68226031D01*
X113388919Y-68226033D01*
X113492735Y-68282215D01*
X113594204Y-68337127D01*
X113708845Y-68376483D01*
X113814976Y-68412919D01*
X113814978Y-68412919D01*
X113814980Y-68412920D01*
X114045219Y-68451340D01*
X114045220Y-68451340D01*
X114278642Y-68451340D01*
X114278643Y-68451340D01*
X114508882Y-68412920D01*
X114729658Y-68337127D01*
X114934948Y-68226030D01*
X115119151Y-68082658D01*
X115277245Y-67910923D01*
X115404915Y-67715509D01*
X115498680Y-67501747D01*
X115555982Y-67275466D01*
X115575258Y-67042840D01*
X115555982Y-66810214D01*
X115498680Y-66583933D01*
X115404915Y-66370171D01*
X115318867Y-66238464D01*
X115277244Y-66174755D01*
X115190074Y-66080064D01*
X115159151Y-66017410D01*
X115167011Y-65947984D01*
X115211158Y-65893828D01*
X115237963Y-65879901D01*
X115308135Y-65853729D01*
X115425192Y-65766101D01*
X115512820Y-65649044D01*
X115534095Y-65592005D01*
X115575967Y-65536072D01*
X115641431Y-65511656D01*
X115650276Y-65511340D01*
X116240090Y-65511340D01*
X116307129Y-65531025D01*
X116327771Y-65547659D01*
X118559348Y-67779236D01*
X118592833Y-67840559D01*
X118595667Y-67866917D01*
X118595667Y-68223358D01*
X118595668Y-68223374D01*
X118606280Y-68327248D01*
X118662051Y-68495556D01*
X118662053Y-68495561D01*
X118684855Y-68532529D01*
X118755137Y-68646473D01*
X118880515Y-68771851D01*
X119031429Y-68864936D01*
X119199741Y-68920708D01*
X119303622Y-68931321D01*
X120204711Y-68931320D01*
X120308593Y-68920708D01*
X120476905Y-68864936D01*
X120627819Y-68771851D01*
X120753197Y-68646473D01*
X120846282Y-68495559D01*
X120902054Y-68327247D01*
X120912667Y-68223366D01*
X120912667Y-68222807D01*
X121704168Y-68222807D01*
X121714661Y-68325518D01*
X121769808Y-68491940D01*
X121769810Y-68491945D01*
X121861851Y-68641166D01*
X121985821Y-68765136D01*
X122135042Y-68857177D01*
X122135047Y-68857179D01*
X122301469Y-68912326D01*
X122301476Y-68912327D01*
X122404186Y-68922820D01*
X122604166Y-68922820D01*
X123104167Y-68922820D01*
X123304139Y-68922820D01*
X123304153Y-68922819D01*
X123406864Y-68912326D01*
X123573286Y-68857179D01*
X123573291Y-68857177D01*
X123722512Y-68765136D01*
X123846482Y-68641166D01*
X123938523Y-68491945D01*
X123938525Y-68491940D01*
X123993672Y-68325518D01*
X123993673Y-68325511D01*
X124004128Y-68223183D01*
X125552641Y-68223183D01*
X125559042Y-68282711D01*
X125559044Y-68282718D01*
X125609286Y-68417425D01*
X125609290Y-68417432D01*
X125695450Y-68532526D01*
X125695453Y-68532529D01*
X125810547Y-68618689D01*
X125810554Y-68618693D01*
X125945261Y-68668935D01*
X125945268Y-68668937D01*
X126004796Y-68675338D01*
X126004813Y-68675339D01*
X126602641Y-68675339D01*
X127102641Y-68675339D01*
X127700469Y-68675339D01*
X127700485Y-68675338D01*
X127760013Y-68668937D01*
X127760020Y-68668935D01*
X127894727Y-68618693D01*
X127894734Y-68618689D01*
X128009828Y-68532529D01*
X128009831Y-68532526D01*
X128095991Y-68417432D01*
X128095995Y-68417425D01*
X128146237Y-68282718D01*
X128146239Y-68282711D01*
X128152640Y-68223183D01*
X128152641Y-68223166D01*
X128152641Y-67625339D01*
X127102641Y-67625339D01*
X127102641Y-68675339D01*
X126602641Y-68675339D01*
X126602641Y-67625339D01*
X125552641Y-67625339D01*
X125552641Y-68223183D01*
X124004128Y-68223183D01*
X124004166Y-68222807D01*
X124004167Y-68222794D01*
X124004167Y-67797821D01*
X123104167Y-67797821D01*
X123104167Y-68922820D01*
X122604166Y-68922820D01*
X122604167Y-68922819D01*
X122604167Y-67797821D01*
X121704168Y-67797821D01*
X121704168Y-68222807D01*
X120912667Y-68222807D01*
X120912666Y-66872834D01*
X121704167Y-66872834D01*
X121704167Y-67297821D01*
X122604167Y-67297821D01*
X123104167Y-67297821D01*
X124004166Y-67297821D01*
X124004166Y-66872849D01*
X124004165Y-66872834D01*
X123993672Y-66770123D01*
X123938525Y-66603701D01*
X123938523Y-66603696D01*
X123846482Y-66454475D01*
X123722512Y-66330505D01*
X123573291Y-66238464D01*
X123573286Y-66238462D01*
X123406864Y-66183315D01*
X123406857Y-66183314D01*
X123304153Y-66172821D01*
X123104167Y-66172821D01*
X123104167Y-67297821D01*
X122604167Y-67297821D01*
X122604167Y-66172821D01*
X122404196Y-66172821D01*
X122404179Y-66172822D01*
X122301469Y-66183315D01*
X122135047Y-66238462D01*
X122135042Y-66238464D01*
X121985821Y-66330505D01*
X121861851Y-66454475D01*
X121769810Y-66603696D01*
X121769808Y-66603701D01*
X121714661Y-66770123D01*
X121714660Y-66770130D01*
X121704167Y-66872834D01*
X120912666Y-66872834D01*
X120912666Y-66872277D01*
X120902054Y-66768395D01*
X120846282Y-66600083D01*
X120753197Y-66449169D01*
X120627819Y-66323791D01*
X120489483Y-66238464D01*
X120476907Y-66230707D01*
X120476902Y-66230705D01*
X120308594Y-66174934D01*
X120204719Y-66164321D01*
X120204712Y-66164321D01*
X119848263Y-66164321D01*
X119781224Y-66144636D01*
X119760582Y-66128002D01*
X118353256Y-64720676D01*
X118319771Y-64659353D01*
X118324755Y-64589661D01*
X118366627Y-64533728D01*
X118432091Y-64509311D01*
X118440937Y-64508995D01*
X118751488Y-64508995D01*
X118751502Y-64508994D01*
X118854213Y-64498501D01*
X119020635Y-64443354D01*
X119020640Y-64443352D01*
X119169861Y-64351311D01*
X119293831Y-64227341D01*
X119385872Y-64078120D01*
X119385874Y-64078115D01*
X119441021Y-63911693D01*
X119441022Y-63911686D01*
X119451515Y-63808982D01*
X119451516Y-63808969D01*
X119451516Y-63383996D01*
X117151518Y-63383996D01*
X117151516Y-63383997D01*
X117151516Y-63411474D01*
X117131831Y-63478513D01*
X117079026Y-63524267D01*
X117009867Y-63534210D01*
X117003325Y-63533089D01*
X116808519Y-63494340D01*
X116808515Y-63494340D01*
X115650276Y-63494340D01*
X115583237Y-63474655D01*
X115537482Y-63421851D01*
X115534095Y-63413675D01*
X115516262Y-63365865D01*
X115512820Y-63356636D01*
X115425192Y-63239579D01*
X115308135Y-63151951D01*
X115286756Y-63143977D01*
X115171134Y-63100851D01*
X115110585Y-63094340D01*
X115110569Y-63094340D01*
X113213293Y-63094340D01*
X113213276Y-63094340D01*
X113152728Y-63100851D01*
X113152726Y-63100851D01*
X113015726Y-63151951D01*
X112898670Y-63239579D01*
X112811042Y-63356635D01*
X112759942Y-63493635D01*
X112759942Y-63493637D01*
X112753431Y-63554185D01*
X112753431Y-65451494D01*
X112759942Y-65512042D01*
X112759942Y-65512044D01*
X112800743Y-65621431D01*
X112811042Y-65649044D01*
X112898670Y-65766101D01*
X113015727Y-65853729D01*
X113015726Y-65853729D01*
X113085892Y-65879900D01*
X113141826Y-65921771D01*
X113166242Y-65987236D01*
X113151390Y-66055509D01*
X113133788Y-66080064D01*
X113046614Y-66174759D01*
X112918946Y-66370171D01*
X112825182Y-66583932D01*
X112767879Y-66810217D01*
X112748604Y-67042834D01*
X111500500Y-67042834D01*
X111500500Y-62459009D01*
X117151516Y-62459009D01*
X117151516Y-62883996D01*
X118051516Y-62883996D01*
X118051516Y-61758996D01*
X117851545Y-61758996D01*
X117851528Y-61758997D01*
X117748818Y-61769490D01*
X117582396Y-61824637D01*
X117582391Y-61824639D01*
X117433170Y-61916680D01*
X117309200Y-62040650D01*
X117217159Y-62189871D01*
X117217157Y-62189876D01*
X117162010Y-62356298D01*
X117162009Y-62356305D01*
X117151516Y-62459009D01*
X111500500Y-62459009D01*
X111500500Y-60422096D01*
X112776540Y-60422096D01*
X112776540Y-60422107D01*
X112795815Y-60654724D01*
X112795815Y-60654727D01*
X112795816Y-60654728D01*
X112808757Y-60705831D01*
X112853118Y-60881009D01*
X112946882Y-61094770D01*
X113074553Y-61290186D01*
X113232643Y-61461916D01*
X113232647Y-61461920D01*
X113416850Y-61605292D01*
X113416852Y-61605293D01*
X113416855Y-61605295D01*
X113526091Y-61664410D01*
X113622140Y-61716389D01*
X113689754Y-61739601D01*
X113842912Y-61792181D01*
X113842914Y-61792181D01*
X113842916Y-61792182D01*
X114073155Y-61830602D01*
X114073156Y-61830602D01*
X114306578Y-61830602D01*
X114306579Y-61830602D01*
X114536818Y-61792182D01*
X114536938Y-61792141D01*
X114602917Y-61769490D01*
X114757594Y-61716389D01*
X114962884Y-61605292D01*
X115147087Y-61461920D01*
X115147087Y-61461919D01*
X115151134Y-61458770D01*
X115152159Y-61460086D01*
X115208181Y-61432447D01*
X115229493Y-61430602D01*
X118220526Y-61430602D01*
X118287565Y-61450287D01*
X118308207Y-61466921D01*
X118515197Y-61673911D01*
X118548682Y-61735234D01*
X118551516Y-61761592D01*
X118551516Y-62883996D01*
X119451515Y-62883996D01*
X119462154Y-62873356D01*
X119471200Y-62842552D01*
X119524004Y-62796797D01*
X119593162Y-62786853D01*
X119656718Y-62815878D01*
X119663196Y-62821910D01*
X120206697Y-63365411D01*
X120240182Y-63426734D01*
X120243016Y-63453092D01*
X120243016Y-63809533D01*
X120243017Y-63809549D01*
X120253629Y-63913423D01*
X120264722Y-63946900D01*
X120309401Y-64081734D01*
X120402486Y-64232648D01*
X120527864Y-64358026D01*
X120678778Y-64451111D01*
X120847090Y-64506883D01*
X120950971Y-64517496D01*
X121307419Y-64517495D01*
X121374458Y-64537179D01*
X121395100Y-64553814D01*
X122319506Y-65478220D01*
X122433291Y-65592005D01*
X122459979Y-65618693D01*
X122625148Y-65729056D01*
X122625154Y-65729059D01*
X122625155Y-65729060D01*
X122808690Y-65805083D01*
X123003525Y-65843838D01*
X123003529Y-65843839D01*
X123003530Y-65843839D01*
X125511457Y-65843839D01*
X125578496Y-65863524D01*
X125610723Y-65893527D01*
X125689380Y-65998600D01*
X125706454Y-66011381D01*
X125748324Y-66067314D01*
X125753308Y-66137005D01*
X125719823Y-66198328D01*
X125706458Y-66209910D01*
X125695452Y-66218149D01*
X125695450Y-66218151D01*
X125609290Y-66333245D01*
X125609286Y-66333252D01*
X125559044Y-66467959D01*
X125559042Y-66467966D01*
X125552641Y-66527494D01*
X125552641Y-67125339D01*
X128152641Y-67125339D01*
X128152641Y-66527511D01*
X128152640Y-66527494D01*
X128146239Y-66467966D01*
X128146237Y-66467959D01*
X128095995Y-66333252D01*
X128095991Y-66333245D01*
X128009831Y-66218151D01*
X128009829Y-66218149D01*
X127998826Y-66209912D01*
X127956956Y-66153977D01*
X127951973Y-66084286D01*
X127985460Y-66022963D01*
X127998821Y-66011386D01*
X128015902Y-65998600D01*
X128103530Y-65881543D01*
X128154630Y-65744540D01*
X128158232Y-65711031D01*
X128161140Y-65683993D01*
X128161141Y-65683976D01*
X128161141Y-63986701D01*
X128161140Y-63986684D01*
X128156243Y-63941144D01*
X128154630Y-63926138D01*
X128149887Y-63913422D01*
X128111144Y-63809549D01*
X128103530Y-63789135D01*
X128015902Y-63672078D01*
X128005919Y-63664605D01*
X127964049Y-63608674D01*
X127959063Y-63538983D01*
X127992547Y-63477659D01*
X128005919Y-63466073D01*
X128015902Y-63458600D01*
X128103530Y-63341543D01*
X128154630Y-63204540D01*
X128160284Y-63151951D01*
X128161140Y-63143993D01*
X128161141Y-63143976D01*
X128161141Y-61446701D01*
X128161140Y-61446684D01*
X128157579Y-61413568D01*
X128154630Y-61386138D01*
X128103530Y-61249135D01*
X128015902Y-61132078D01*
X128005919Y-61124605D01*
X127964049Y-61068674D01*
X127959063Y-60998983D01*
X127992547Y-60937659D01*
X128005919Y-60926073D01*
X128015902Y-60918600D01*
X128094558Y-60813527D01*
X128150492Y-60771657D01*
X128193825Y-60763839D01*
X130335906Y-60763839D01*
X130402945Y-60783524D01*
X130423587Y-60800158D01*
X131077232Y-61453804D01*
X131077236Y-61453807D01*
X131242406Y-61564171D01*
X131242415Y-61564176D01*
X131283992Y-61581397D01*
X131425949Y-61640198D01*
X131547671Y-61664410D01*
X131620783Y-61678953D01*
X131620786Y-61678954D01*
X131620788Y-61678954D01*
X131819448Y-61678954D01*
X131819449Y-61678953D01*
X132014285Y-61640198D01*
X132197821Y-61564175D01*
X132362998Y-61453807D01*
X132503470Y-61313335D01*
X132613838Y-61148158D01*
X132689861Y-60964622D01*
X132728617Y-60769783D01*
X132728617Y-60571125D01*
X132728617Y-60571122D01*
X132728616Y-60571120D01*
X132689862Y-60376293D01*
X132689861Y-60376286D01*
X132623737Y-60216649D01*
X132613839Y-60192752D01*
X132613834Y-60192743D01*
X132503470Y-60027573D01*
X132503467Y-60027569D01*
X131578181Y-59102283D01*
X131544696Y-59040960D01*
X131549680Y-58971268D01*
X131591552Y-58915335D01*
X131657016Y-58890918D01*
X131665862Y-58890602D01*
X132130308Y-58890602D01*
X132197347Y-58910287D01*
X132217989Y-58926921D01*
X133127822Y-59836754D01*
X133161307Y-59898077D01*
X133164141Y-59924435D01*
X133164141Y-60603993D01*
X133170652Y-60664541D01*
X133170652Y-60664543D01*
X133221752Y-60801543D01*
X133309380Y-60918600D01*
X133319363Y-60926073D01*
X133361233Y-60982007D01*
X133366217Y-61051699D01*
X133332731Y-61113021D01*
X133319363Y-61124605D01*
X133309380Y-61132077D01*
X133221752Y-61249134D01*
X133170652Y-61386134D01*
X133170652Y-61386136D01*
X133164141Y-61446684D01*
X133164141Y-63143993D01*
X133170652Y-63204541D01*
X133170652Y-63204543D01*
X133221752Y-63341543D01*
X133309380Y-63458600D01*
X133319363Y-63466073D01*
X133361233Y-63522007D01*
X133366217Y-63591699D01*
X133332731Y-63653021D01*
X133319363Y-63664605D01*
X133309380Y-63672077D01*
X133221752Y-63789134D01*
X133170652Y-63926134D01*
X133170652Y-63926136D01*
X133164141Y-63986684D01*
X133164141Y-65683993D01*
X133170652Y-65744541D01*
X133170652Y-65744543D01*
X133221752Y-65881543D01*
X133309380Y-65998600D01*
X133319363Y-66006073D01*
X133361233Y-66062007D01*
X133366217Y-66131699D01*
X133332731Y-66193021D01*
X133319363Y-66204605D01*
X133309380Y-66212077D01*
X133221752Y-66329134D01*
X133170652Y-66466134D01*
X133170652Y-66466136D01*
X133164141Y-66526684D01*
X133164141Y-68223993D01*
X133170652Y-68284541D01*
X133170652Y-68284543D01*
X133210949Y-68392579D01*
X133221752Y-68421543D01*
X133309380Y-68538600D01*
X133426437Y-68626228D01*
X133540938Y-68668935D01*
X133558104Y-68675338D01*
X133563440Y-68677328D01*
X133590691Y-68680257D01*
X133623986Y-68683838D01*
X133624003Y-68683839D01*
X135321279Y-68683839D01*
X135321295Y-68683838D01*
X135348333Y-68680930D01*
X135381842Y-68677328D01*
X135387178Y-68675338D01*
X135404344Y-68668935D01*
X135518845Y-68626228D01*
X135635902Y-68538600D01*
X135723530Y-68421543D01*
X135774630Y-68284540D01*
X135778232Y-68251031D01*
X135781140Y-68223993D01*
X135781141Y-68223976D01*
X135781141Y-66526701D01*
X135781140Y-66526684D01*
X135777234Y-66490362D01*
X135774630Y-66466138D01*
X135768486Y-66449666D01*
X135752163Y-66405903D01*
X135723530Y-66329135D01*
X135635902Y-66212078D01*
X135625919Y-66204605D01*
X135584049Y-66148674D01*
X135579063Y-66078983D01*
X135612547Y-66017659D01*
X135625919Y-66006073D01*
X135635902Y-65998600D01*
X135723530Y-65881543D01*
X135774630Y-65744540D01*
X135778232Y-65711031D01*
X135781140Y-65683993D01*
X135781141Y-65683976D01*
X135781141Y-63986701D01*
X135781140Y-63986684D01*
X135776243Y-63941144D01*
X135774630Y-63926138D01*
X135769887Y-63913422D01*
X135731144Y-63809549D01*
X135723530Y-63789135D01*
X135635902Y-63672078D01*
X135625919Y-63664605D01*
X135584049Y-63608674D01*
X135579063Y-63538983D01*
X135612547Y-63477659D01*
X135625919Y-63466073D01*
X135635902Y-63458600D01*
X135723530Y-63341543D01*
X135774630Y-63204540D01*
X135780284Y-63151951D01*
X135781140Y-63143993D01*
X135781141Y-63143976D01*
X135781141Y-63143575D01*
X135781167Y-63143485D01*
X135781318Y-63140670D01*
X135781496Y-63140679D01*
X135781497Y-63140674D01*
X135781600Y-63140685D01*
X135781983Y-63140705D01*
X135800826Y-63076536D01*
X135853630Y-63030781D01*
X135922788Y-63020837D01*
X135986344Y-63049862D01*
X135992822Y-63055894D01*
X136027569Y-63090641D01*
X136027573Y-63090644D01*
X136192743Y-63201008D01*
X136192752Y-63201013D01*
X136234328Y-63218234D01*
X136376285Y-63277035D01*
X136571120Y-63315790D01*
X136571124Y-63315791D01*
X136571125Y-63315791D01*
X137309996Y-63315791D01*
X137377035Y-63335476D01*
X137397677Y-63352110D01*
X137925387Y-63879821D01*
X137958872Y-63941144D01*
X137961064Y-63980104D01*
X137953145Y-64057611D01*
X137953145Y-64958703D01*
X137953146Y-64958719D01*
X137963758Y-65062593D01*
X137984056Y-65123848D01*
X138019530Y-65230904D01*
X138112615Y-65381818D01*
X138237993Y-65507196D01*
X138388907Y-65600281D01*
X138557219Y-65656053D01*
X138661100Y-65666666D01*
X140012189Y-65666665D01*
X140116071Y-65656053D01*
X140284383Y-65600281D01*
X140435297Y-65507196D01*
X140560675Y-65381818D01*
X140653760Y-65230904D01*
X140689234Y-65123848D01*
X142566052Y-65123848D01*
X142576545Y-65226559D01*
X142631692Y-65392981D01*
X142631694Y-65392986D01*
X142723735Y-65542207D01*
X142847705Y-65666177D01*
X142996926Y-65758218D01*
X142996931Y-65758220D01*
X143163353Y-65813367D01*
X143163360Y-65813368D01*
X143266070Y-65823861D01*
X143691050Y-65823861D01*
X144191051Y-65823861D01*
X144616023Y-65823861D01*
X144616037Y-65823860D01*
X144718748Y-65813367D01*
X144885170Y-65758220D01*
X144885175Y-65758218D01*
X145034396Y-65666177D01*
X145158366Y-65542207D01*
X145250407Y-65392986D01*
X145250409Y-65392981D01*
X145305556Y-65226559D01*
X145305557Y-65226552D01*
X145316050Y-65123848D01*
X145316051Y-65123835D01*
X145316051Y-64948862D01*
X144191051Y-64948862D01*
X144191051Y-65823861D01*
X143691050Y-65823861D01*
X143691051Y-65823860D01*
X143691051Y-64948862D01*
X142566052Y-64948862D01*
X142566052Y-65123848D01*
X140689234Y-65123848D01*
X140709532Y-65062592D01*
X140720145Y-64958711D01*
X140720144Y-64273875D01*
X142566051Y-64273875D01*
X142566051Y-64448862D01*
X143691051Y-64448862D01*
X144191051Y-64448862D01*
X145316050Y-64448862D01*
X145316050Y-64273890D01*
X145316049Y-64273875D01*
X145305556Y-64171164D01*
X145250409Y-64004742D01*
X145250407Y-64004737D01*
X145158366Y-63855516D01*
X145034396Y-63731546D01*
X144885175Y-63639505D01*
X144885170Y-63639503D01*
X144718748Y-63584356D01*
X144718741Y-63584355D01*
X144616037Y-63573862D01*
X144191051Y-63573862D01*
X144191051Y-64448862D01*
X143691051Y-64448862D01*
X143691051Y-63573862D01*
X143266079Y-63573862D01*
X143266063Y-63573863D01*
X143163353Y-63584356D01*
X142996931Y-63639503D01*
X142996926Y-63639505D01*
X142847705Y-63731546D01*
X142723735Y-63855516D01*
X142631694Y-64004737D01*
X142631692Y-64004742D01*
X142576545Y-64171164D01*
X142576544Y-64171171D01*
X142566051Y-64273875D01*
X140720144Y-64273875D01*
X140720144Y-64057622D01*
X140709532Y-63953740D01*
X140653760Y-63785428D01*
X140560675Y-63634514D01*
X140435297Y-63509136D01*
X140284383Y-63416051D01*
X140284382Y-63416050D01*
X140284381Y-63416050D01*
X140280246Y-63414680D01*
X140222802Y-63374906D01*
X140216159Y-63365878D01*
X140119999Y-63221963D01*
X140119997Y-63221960D01*
X140119996Y-63221959D01*
X138421976Y-61523940D01*
X138421972Y-61523937D01*
X138256802Y-61413573D01*
X138256793Y-61413568D01*
X138204350Y-61391846D01*
X138073261Y-61337547D01*
X138073253Y-61337545D01*
X137878425Y-61298791D01*
X137878421Y-61298791D01*
X136571125Y-61298791D01*
X136571120Y-61298791D01*
X136376292Y-61337545D01*
X136376284Y-61337547D01*
X136192752Y-61413568D01*
X136192743Y-61413573D01*
X136027573Y-61523937D01*
X136027569Y-61523940D01*
X135992822Y-61558688D01*
X135931499Y-61592173D01*
X135861807Y-61587189D01*
X135805874Y-61545317D01*
X135781457Y-61479853D01*
X135781141Y-61471007D01*
X135781141Y-61446701D01*
X135781140Y-61446684D01*
X135777579Y-61413568D01*
X135774630Y-61386138D01*
X135723530Y-61249135D01*
X135635902Y-61132078D01*
X135625919Y-61124605D01*
X135584049Y-61068674D01*
X135579063Y-60998983D01*
X135612547Y-60937659D01*
X135625919Y-60926073D01*
X135635902Y-60918600D01*
X135714558Y-60813527D01*
X135770492Y-60771657D01*
X135813825Y-60763839D01*
X147370109Y-60763839D01*
X147437148Y-60783524D01*
X147469375Y-60813527D01*
X147547154Y-60917427D01*
X147664211Y-61005055D01*
X147793797Y-61053388D01*
X147849728Y-61095259D01*
X147874145Y-61160723D01*
X147859293Y-61228996D01*
X147838143Y-61257250D01*
X147722301Y-61373092D01*
X147586815Y-61566586D01*
X147586814Y-61566588D01*
X147486985Y-61780673D01*
X147486982Y-61780679D01*
X147429779Y-61994165D01*
X147429779Y-61994166D01*
X148327403Y-61994166D01*
X148294490Y-62051173D01*
X148260415Y-62178340D01*
X148260415Y-62309992D01*
X148294490Y-62437159D01*
X148327403Y-62494166D01*
X147429779Y-62494166D01*
X147486982Y-62707652D01*
X147486985Y-62707658D01*
X147586814Y-62921744D01*
X147722309Y-63115248D01*
X147889332Y-63282271D01*
X148070217Y-63408929D01*
X148113842Y-63463506D01*
X148121034Y-63533005D01*
X148089512Y-63595359D01*
X148058112Y-63619558D01*
X148014842Y-63642975D01*
X148014837Y-63642978D01*
X147837176Y-63781258D01*
X147837171Y-63781263D01*
X147684699Y-63946889D01*
X147684691Y-63946900D01*
X147561555Y-64135373D01*
X147471118Y-64341551D01*
X147415851Y-64559794D01*
X147415849Y-64559806D01*
X147406711Y-64670088D01*
X147381558Y-64735273D01*
X147370816Y-64747529D01*
X145664304Y-66454043D01*
X145602981Y-66487528D01*
X145576623Y-66490362D01*
X145018986Y-66490362D01*
X144953890Y-66471901D01*
X144888786Y-66431745D01*
X144720479Y-66375975D01*
X144616596Y-66365362D01*
X143265513Y-66365362D01*
X143265497Y-66365363D01*
X143161623Y-66375975D01*
X142993315Y-66431746D01*
X142993310Y-66431748D01*
X142842397Y-66524833D01*
X142803884Y-66563347D01*
X142742561Y-66596832D01*
X142716203Y-66599666D01*
X140455111Y-66599666D01*
X140390014Y-66581205D01*
X140361062Y-66563347D01*
X140284383Y-66516051D01*
X140284382Y-66516050D01*
X140284378Y-66516048D01*
X140116073Y-66460279D01*
X140012190Y-66449666D01*
X138661107Y-66449666D01*
X138661091Y-66449667D01*
X138557217Y-66460279D01*
X138388909Y-66516050D01*
X138388904Y-66516052D01*
X138237991Y-66609137D01*
X138112616Y-66734512D01*
X138019531Y-66885425D01*
X138019529Y-66885430D01*
X137963758Y-67053738D01*
X137953145Y-67157613D01*
X137953145Y-68058703D01*
X137953146Y-68058719D01*
X137963758Y-68162593D01*
X138019529Y-68330901D01*
X138019531Y-68330906D01*
X138054787Y-68388064D01*
X138112615Y-68481818D01*
X138237993Y-68607196D01*
X138388907Y-68700281D01*
X138557219Y-68756053D01*
X138661100Y-68766666D01*
X140012189Y-68766665D01*
X140116071Y-68756053D01*
X140199493Y-68728409D01*
X140284378Y-68700283D01*
X140284379Y-68700282D01*
X140284383Y-68700281D01*
X140390014Y-68635126D01*
X140455111Y-68616666D01*
X143126275Y-68616666D01*
X143154801Y-68621270D01*
X143155002Y-68620332D01*
X143161619Y-68621748D01*
X143161623Y-68621748D01*
X143161625Y-68621749D01*
X143265506Y-68632362D01*
X144616595Y-68632361D01*
X144720477Y-68621749D01*
X144888786Y-68565978D01*
X144888787Y-68565978D01*
X144953890Y-68525823D01*
X145018986Y-68507362D01*
X146145049Y-68507362D01*
X146145050Y-68507361D01*
X146339888Y-68468606D01*
X146523423Y-68392583D01*
X146688600Y-68282215D01*
X146829072Y-68141743D01*
X148791958Y-66178856D01*
X148853279Y-66145373D01*
X148869408Y-66142962D01*
X148872971Y-66142666D01*
X148872984Y-66142666D01*
X149095050Y-66105610D01*
X149307989Y-66032508D01*
X149505991Y-65925355D01*
X149683655Y-65787072D01*
X149794499Y-65666665D01*
X149836130Y-65621442D01*
X149836131Y-65621440D01*
X149836137Y-65621434D01*
X149959275Y-65432957D01*
X150049711Y-65226782D01*
X150104979Y-65008534D01*
X150123571Y-64784166D01*
X150120535Y-64747529D01*
X150104980Y-64559806D01*
X150104978Y-64559794D01*
X150049711Y-64341551D01*
X150020032Y-64273890D01*
X149959275Y-64135375D01*
X149921868Y-64078120D01*
X149873925Y-64004737D01*
X149836137Y-63946898D01*
X149836134Y-63946895D01*
X149836130Y-63946889D01*
X149683658Y-63781263D01*
X149683653Y-63781258D01*
X149565212Y-63689071D01*
X149505992Y-63642977D01*
X149462718Y-63619559D01*
X149413128Y-63570339D01*
X149398020Y-63502123D01*
X149422190Y-63436567D01*
X149450613Y-63408929D01*
X149631494Y-63282274D01*
X149798520Y-63115248D01*
X149934015Y-62921744D01*
X150033844Y-62707658D01*
X150033847Y-62707652D01*
X150091051Y-62494166D01*
X149193427Y-62494166D01*
X149226340Y-62437159D01*
X149260415Y-62309992D01*
X149260415Y-62178340D01*
X149226340Y-62051173D01*
X149193427Y-61994166D01*
X150091051Y-61994166D01*
X150091050Y-61994165D01*
X150033847Y-61780679D01*
X150033844Y-61780673D01*
X149934015Y-61566588D01*
X149934014Y-61566586D01*
X149798528Y-61373092D01*
X149798523Y-61373086D01*
X149682687Y-61257250D01*
X149649202Y-61195927D01*
X149654186Y-61126235D01*
X149696058Y-61070302D01*
X149727027Y-61053390D01*
X149856619Y-61005055D01*
X149973676Y-60917427D01*
X150061304Y-60800370D01*
X150111966Y-60664541D01*
X150112403Y-60663370D01*
X150112403Y-60663369D01*
X150112404Y-60663367D01*
X150116006Y-60629858D01*
X150118914Y-60602820D01*
X150118915Y-60602803D01*
X150118915Y-58805528D01*
X150118914Y-58805511D01*
X150112571Y-58746523D01*
X150112404Y-58744965D01*
X150111711Y-58743108D01*
X150075245Y-58645339D01*
X150061304Y-58607962D01*
X149973676Y-58490905D01*
X149856619Y-58403277D01*
X149719618Y-58352177D01*
X149659069Y-58345666D01*
X149659053Y-58345666D01*
X147861777Y-58345666D01*
X147861760Y-58345666D01*
X147801212Y-58352177D01*
X147801210Y-58352177D01*
X147664210Y-58403277D01*
X147547154Y-58490905D01*
X147459527Y-58607959D01*
X147459526Y-58607962D01*
X147437813Y-58666175D01*
X147395943Y-58722106D01*
X147330479Y-58746523D01*
X147321633Y-58746839D01*
X145182162Y-58746839D01*
X145115123Y-58727154D01*
X145069368Y-58674350D01*
X145059424Y-58605192D01*
X145088449Y-58541636D01*
X145111039Y-58521264D01*
X145245442Y-58427154D01*
X145269549Y-58410274D01*
X145421549Y-58258274D01*
X145544844Y-58082190D01*
X145635690Y-57887370D01*
X145691326Y-57679735D01*
X145710061Y-57465593D01*
X145691326Y-57251451D01*
X145635690Y-57043816D01*
X145544844Y-56848997D01*
X145421549Y-56672912D01*
X145421547Y-56672909D01*
X145269550Y-56520912D01*
X145093469Y-56397619D01*
X145093465Y-56397617D01*
X145049434Y-56377085D01*
X144898645Y-56306771D01*
X144898642Y-56306770D01*
X144898640Y-56306769D01*
X144691012Y-56251135D01*
X144691004Y-56251134D01*
X144476870Y-56232400D01*
X144476866Y-56232400D01*
X144262731Y-56251134D01*
X144262723Y-56251135D01*
X144055095Y-56306769D01*
X144055089Y-56306772D01*
X143860273Y-56397616D01*
X143860271Y-56397617D01*
X143684184Y-56520913D01*
X143532188Y-56672909D01*
X143408892Y-56848996D01*
X143408891Y-56848998D01*
X143319250Y-57041234D01*
X143273077Y-57093673D01*
X143205884Y-57112825D01*
X143139003Y-57092609D01*
X143094486Y-57041234D01*
X143092276Y-57036495D01*
X143004844Y-56848997D01*
X142881549Y-56672912D01*
X142881547Y-56672909D01*
X142729550Y-56520912D01*
X142553469Y-56397619D01*
X142553465Y-56397617D01*
X142509434Y-56377085D01*
X142358645Y-56306771D01*
X142358642Y-56306770D01*
X142358640Y-56306769D01*
X142151012Y-56251135D01*
X142151004Y-56251134D01*
X141936870Y-56232400D01*
X141936866Y-56232400D01*
X141722731Y-56251134D01*
X141722723Y-56251135D01*
X141515095Y-56306769D01*
X141515089Y-56306772D01*
X141320273Y-56397616D01*
X141320271Y-56397617D01*
X141144184Y-56520913D01*
X140992188Y-56672909D01*
X140868892Y-56848996D01*
X140868891Y-56848998D01*
X140775758Y-57048723D01*
X140774170Y-57047982D01*
X140737381Y-57097907D01*
X140672102Y-57122816D01*
X140603720Y-57108479D01*
X140553944Y-57059447D01*
X140549943Y-57051606D01*
X140457456Y-56853266D01*
X140457450Y-56853256D01*
X140418452Y-56797561D01*
X139796868Y-57419145D01*
X139796868Y-57412932D01*
X139769609Y-57311199D01*
X139716948Y-57219987D01*
X139642474Y-57145513D01*
X139551262Y-57092852D01*
X139449529Y-57065593D01*
X139443315Y-57065593D01*
X140064898Y-56444008D01*
X140009197Y-56405006D01*
X139815727Y-56314790D01*
X139815721Y-56314787D01*
X139609530Y-56259538D01*
X139609522Y-56259537D01*
X139396870Y-56240933D01*
X139396866Y-56240933D01*
X139184213Y-56259537D01*
X139184205Y-56259538D01*
X138978014Y-56314787D01*
X138978008Y-56314790D01*
X138784539Y-56405005D01*
X138784537Y-56405006D01*
X138728837Y-56444008D01*
X138728836Y-56444008D01*
X139350422Y-57065593D01*
X139344207Y-57065593D01*
X139242474Y-57092852D01*
X139151262Y-57145513D01*
X139076788Y-57219987D01*
X139024127Y-57311199D01*
X138996868Y-57412932D01*
X138996868Y-57419146D01*
X138375283Y-56797561D01*
X138375283Y-56797562D01*
X138336281Y-56853262D01*
X138336280Y-56853264D01*
X138246065Y-57046733D01*
X138246062Y-57046739D01*
X138190813Y-57252930D01*
X138190812Y-57252938D01*
X138172208Y-57465590D01*
X138172208Y-57465595D01*
X138190812Y-57678247D01*
X138190813Y-57678255D01*
X138246062Y-57884446D01*
X138246065Y-57884452D01*
X138336281Y-58077922D01*
X138375283Y-58133623D01*
X138996868Y-57512038D01*
X138996868Y-57518254D01*
X139024127Y-57619987D01*
X139076788Y-57711199D01*
X139151262Y-57785673D01*
X139242474Y-57838334D01*
X139344207Y-57865593D01*
X139350422Y-57865593D01*
X138728836Y-58487177D01*
X138777518Y-58521265D01*
X138821143Y-58575842D01*
X138828335Y-58645340D01*
X138796813Y-58707695D01*
X138736582Y-58743108D01*
X138706394Y-58746839D01*
X135813825Y-58746839D01*
X135746786Y-58727154D01*
X135714558Y-58697150D01*
X135691369Y-58666173D01*
X135635902Y-58592078D01*
X135518845Y-58504450D01*
X135472535Y-58487177D01*
X135381844Y-58453350D01*
X135321295Y-58446839D01*
X135321279Y-58446839D01*
X134641737Y-58446839D01*
X134574698Y-58427154D01*
X134554056Y-58410520D01*
X133242288Y-57098751D01*
X133242284Y-57098748D01*
X133077114Y-56988384D01*
X133077105Y-56988379D01*
X133009643Y-56960436D01*
X132893573Y-56912358D01*
X132893565Y-56912356D01*
X132698737Y-56873602D01*
X132698733Y-56873602D01*
X115678212Y-56873602D01*
X115611173Y-56853917D01*
X115565418Y-56801113D01*
X115562031Y-56792937D01*
X115554619Y-56773065D01*
X115540756Y-56735898D01*
X115453128Y-56618841D01*
X115336071Y-56531213D01*
X115308456Y-56520913D01*
X115199070Y-56480113D01*
X115138521Y-56473602D01*
X115138505Y-56473602D01*
X113241229Y-56473602D01*
X113241212Y-56473602D01*
X113180664Y-56480113D01*
X113180662Y-56480113D01*
X113043662Y-56531213D01*
X112926606Y-56618841D01*
X112838978Y-56735897D01*
X112787878Y-56872897D01*
X112787878Y-56872899D01*
X112781367Y-56933447D01*
X112781367Y-58830756D01*
X112787878Y-58891304D01*
X112787878Y-58891306D01*
X112833867Y-59014602D01*
X112838978Y-59028306D01*
X112926606Y-59145363D01*
X113043663Y-59232991D01*
X113043662Y-59232991D01*
X113113828Y-59259162D01*
X113169762Y-59301033D01*
X113194178Y-59366498D01*
X113179326Y-59434771D01*
X113161724Y-59459326D01*
X113074550Y-59554021D01*
X112946882Y-59749433D01*
X112853118Y-59963194D01*
X112795815Y-60189479D01*
X112776540Y-60422096D01*
X111500500Y-60422096D01*
X111500500Y-57004427D01*
X111500816Y-56995581D01*
X111506768Y-56912358D01*
X111515130Y-56795436D01*
X111517646Y-56777938D01*
X111559356Y-56586199D01*
X111564333Y-56569248D01*
X111632911Y-56385385D01*
X111640259Y-56369298D01*
X111670024Y-56314787D01*
X111734291Y-56197089D01*
X111743845Y-56182221D01*
X111861448Y-56025123D01*
X111873020Y-56011769D01*
X112011769Y-55873020D01*
X112025123Y-55861448D01*
X112182221Y-55743845D01*
X112197089Y-55734291D01*
X112369298Y-55640258D01*
X112385385Y-55632911D01*
X112569248Y-55564333D01*
X112586199Y-55559356D01*
X112777938Y-55517646D01*
X112795436Y-55515130D01*
X112995582Y-55500816D01*
X113004428Y-55500500D01*
X113065892Y-55500500D01*
X121934108Y-55500500D01*
X148934108Y-55500500D01*
X148995572Y-55500500D01*
X149004418Y-55500816D01*
G37*
%TD.AperFunction*%
%TD*%
M02*
