%TF.GenerationSoftware,KiCad,Pcbnew,8.0.7*%
%TF.CreationDate,2026-02-24T14:52:02+05:30*%
%TF.ProjectId,IR Sensor,49522053-656e-4736-9f72-2e6b69636164,rev?*%
%TF.SameCoordinates,Original*%
%TF.FileFunction,Legend,Bot*%
%TF.FilePolarity,Positive*%
%FSLAX46Y46*%
G04 Gerber Fmt 4.6, Leading zero omitted, Abs format (unit mm)*
G04 Created by KiCad (PCBNEW 8.0.7) date 2026-02-24 14:52:02*
%MOMM*%
%LPD*%
G01*
G04 APERTURE LIST*
%ADD10C,0.010000*%
G04 APERTURE END LIST*
D10*
%TO.C,REF\u002A\u002A*%
X133741246Y-67628394D02*
X133766967Y-67644092D01*
X133793618Y-67665672D01*
X133793618Y-68313129D01*
X133766967Y-68334709D01*
X133735607Y-68352184D01*
X133699806Y-68353020D01*
X133668368Y-68332527D01*
X133664492Y-68327861D01*
X133659026Y-68318394D01*
X133654819Y-68304712D01*
X133651707Y-68284193D01*
X133649527Y-68254213D01*
X133648116Y-68212149D01*
X133647311Y-68155377D01*
X133646947Y-68081275D01*
X133646862Y-67987218D01*
X133646862Y-67665672D01*
X133673513Y-67644092D01*
X133697226Y-67629322D01*
X133720240Y-67622512D01*
X133741246Y-67628394D01*
G36*
X133741246Y-67628394D02*
G01*
X133766967Y-67644092D01*
X133793618Y-67665672D01*
X133793618Y-68313129D01*
X133766967Y-68334709D01*
X133735607Y-68352184D01*
X133699806Y-68353020D01*
X133668368Y-68332527D01*
X133664492Y-68327861D01*
X133659026Y-68318394D01*
X133654819Y-68304712D01*
X133651707Y-68284193D01*
X133649527Y-68254213D01*
X133648116Y-68212149D01*
X133647311Y-68155377D01*
X133646947Y-68081275D01*
X133646862Y-67987218D01*
X133646862Y-67665672D01*
X133673513Y-67644092D01*
X133697226Y-67629322D01*
X133720240Y-67622512D01*
X133741246Y-67628394D01*
G37*
X140871977Y-67626908D02*
X140906131Y-67650221D01*
X140933840Y-67677930D01*
X140933840Y-67990982D01*
X140933799Y-68075012D01*
X140933541Y-68149234D01*
X140932870Y-68205986D01*
X140931592Y-68247957D01*
X140929513Y-68277834D01*
X140926439Y-68298306D01*
X140922174Y-68312059D01*
X140916524Y-68321782D01*
X140909295Y-68330162D01*
X140877831Y-68351626D01*
X140842666Y-68353392D01*
X140809662Y-68333712D01*
X140804356Y-68327843D01*
X140798906Y-68318759D01*
X140794740Y-68305418D01*
X140791686Y-68285202D01*
X140789572Y-68255494D01*
X140788226Y-68213677D01*
X140787478Y-68157134D01*
X140787154Y-68083247D01*
X140787085Y-67989401D01*
X140787124Y-67913739D01*
X140787379Y-67835830D01*
X140788023Y-67775820D01*
X140789227Y-67731093D01*
X140791164Y-67699030D01*
X140794004Y-67677016D01*
X140797919Y-67662432D01*
X140803082Y-67652663D01*
X140809662Y-67645090D01*
X140838846Y-67626068D01*
X140871977Y-67626908D01*
G36*
X140871977Y-67626908D02*
G01*
X140906131Y-67650221D01*
X140933840Y-67677930D01*
X140933840Y-67990982D01*
X140933799Y-68075012D01*
X140933541Y-68149234D01*
X140932870Y-68205986D01*
X140931592Y-68247957D01*
X140929513Y-68277834D01*
X140926439Y-68298306D01*
X140922174Y-68312059D01*
X140916524Y-68321782D01*
X140909295Y-68330162D01*
X140877831Y-68351626D01*
X140842666Y-68353392D01*
X140809662Y-68333712D01*
X140804356Y-68327843D01*
X140798906Y-68318759D01*
X140794740Y-68305418D01*
X140791686Y-68285202D01*
X140789572Y-68255494D01*
X140788226Y-68213677D01*
X140787478Y-68157134D01*
X140787154Y-68083247D01*
X140787085Y-67989401D01*
X140787124Y-67913739D01*
X140787379Y-67835830D01*
X140788023Y-67775820D01*
X140789227Y-67731093D01*
X140791164Y-67699030D01*
X140794004Y-67677016D01*
X140797919Y-67662432D01*
X140803082Y-67652663D01*
X140809662Y-67645090D01*
X140838846Y-67626068D01*
X140871977Y-67626908D01*
G37*
X140340402Y-62386295D02*
X140423153Y-62413498D01*
X140498246Y-62458929D01*
X140570138Y-62524747D01*
X140608686Y-62569012D01*
X140648096Y-62627406D01*
X140673286Y-62688031D01*
X140686701Y-62757310D01*
X140690788Y-62841667D01*
X140690509Y-62887752D01*
X140688300Y-62928895D01*
X140682734Y-62961027D01*
X140672426Y-62991567D01*
X140655988Y-63027934D01*
X140642040Y-63055173D01*
X140583505Y-63140874D01*
X140511459Y-63210062D01*
X140427787Y-63261186D01*
X140334371Y-63292695D01*
X140301274Y-63299670D01*
X140260800Y-63306539D01*
X140227839Y-63308364D01*
X140193538Y-63305392D01*
X140149040Y-63297871D01*
X140097774Y-63285447D01*
X140007274Y-63247557D01*
X139928185Y-63193281D01*
X139862368Y-63125215D01*
X139811680Y-63045956D01*
X139777980Y-62958099D01*
X139763126Y-62864240D01*
X139768976Y-62766975D01*
X139795239Y-62670665D01*
X139840258Y-62581939D01*
X139901213Y-62506864D01*
X139976024Y-62447086D01*
X140062608Y-62404254D01*
X140158883Y-62380016D01*
X140262768Y-62376021D01*
X140340402Y-62386295D01*
G36*
X140340402Y-62386295D02*
G01*
X140423153Y-62413498D01*
X140498246Y-62458929D01*
X140570138Y-62524747D01*
X140608686Y-62569012D01*
X140648096Y-62627406D01*
X140673286Y-62688031D01*
X140686701Y-62757310D01*
X140690788Y-62841667D01*
X140690509Y-62887752D01*
X140688300Y-62928895D01*
X140682734Y-62961027D01*
X140672426Y-62991567D01*
X140655988Y-63027934D01*
X140642040Y-63055173D01*
X140583505Y-63140874D01*
X140511459Y-63210062D01*
X140427787Y-63261186D01*
X140334371Y-63292695D01*
X140301274Y-63299670D01*
X140260800Y-63306539D01*
X140227839Y-63308364D01*
X140193538Y-63305392D01*
X140149040Y-63297871D01*
X140097774Y-63285447D01*
X140007274Y-63247557D01*
X139928185Y-63193281D01*
X139862368Y-63125215D01*
X139811680Y-63045956D01*
X139777980Y-62958099D01*
X139763126Y-62864240D01*
X139768976Y-62766975D01*
X139795239Y-62670665D01*
X139840258Y-62581939D01*
X139901213Y-62506864D01*
X139976024Y-62447086D01*
X140062608Y-62404254D01*
X140158883Y-62380016D01*
X140262768Y-62376021D01*
X140340402Y-62386295D01*
G37*
X133041607Y-67622513D02*
X133135730Y-67622603D01*
X133210245Y-67622943D01*
X133267651Y-67623684D01*
X133310451Y-67624980D01*
X133341144Y-67626982D01*
X133362231Y-67629841D01*
X133376213Y-67633711D01*
X133385590Y-67638743D01*
X133392862Y-67645090D01*
X133411668Y-67677807D01*
X133413115Y-67715384D01*
X133396757Y-67748623D01*
X133395397Y-67750076D01*
X133384194Y-67758437D01*
X133367092Y-67763992D01*
X133339922Y-67767285D01*
X133298518Y-67768863D01*
X133238713Y-67769267D01*
X133099351Y-67769267D01*
X133099351Y-68033034D01*
X133099276Y-68108862D01*
X133098868Y-68175528D01*
X133097886Y-68225312D01*
X133096090Y-68261229D01*
X133093239Y-68286295D01*
X133089093Y-68303526D01*
X133083411Y-68315937D01*
X133075954Y-68326545D01*
X133073664Y-68329351D01*
X133042486Y-68351993D01*
X133008106Y-68353557D01*
X132975174Y-68333712D01*
X132968195Y-68325636D01*
X132962723Y-68315038D01*
X132958703Y-68299194D01*
X132955912Y-68275218D01*
X132954128Y-68240219D01*
X132953129Y-68191309D01*
X132952692Y-68125599D01*
X132952596Y-68040201D01*
X132952596Y-67769267D01*
X132806660Y-67769267D01*
X132795560Y-67769266D01*
X132739042Y-67769041D01*
X132700198Y-67767902D01*
X132674805Y-67765102D01*
X132658644Y-67759895D01*
X132647492Y-67751534D01*
X132637129Y-67739271D01*
X132621281Y-67708583D01*
X132624383Y-67674803D01*
X132650027Y-67642267D01*
X132654969Y-67638550D01*
X132665178Y-67633714D01*
X132680604Y-67629951D01*
X132703726Y-67627128D01*
X132737023Y-67625115D01*
X132782977Y-67623778D01*
X132844068Y-67622987D01*
X132922775Y-67622608D01*
X133021580Y-67622512D01*
X133041607Y-67622513D01*
G36*
X133041607Y-67622513D02*
G01*
X133135730Y-67622603D01*
X133210245Y-67622943D01*
X133267651Y-67623684D01*
X133310451Y-67624980D01*
X133341144Y-67626982D01*
X133362231Y-67629841D01*
X133376213Y-67633711D01*
X133385590Y-67638743D01*
X133392862Y-67645090D01*
X133411668Y-67677807D01*
X133413115Y-67715384D01*
X133396757Y-67748623D01*
X133395397Y-67750076D01*
X133384194Y-67758437D01*
X133367092Y-67763992D01*
X133339922Y-67767285D01*
X133298518Y-67768863D01*
X133238713Y-67769267D01*
X133099351Y-67769267D01*
X133099351Y-68033034D01*
X133099276Y-68108862D01*
X133098868Y-68175528D01*
X133097886Y-68225312D01*
X133096090Y-68261229D01*
X133093239Y-68286295D01*
X133089093Y-68303526D01*
X133083411Y-68315937D01*
X133075954Y-68326545D01*
X133073664Y-68329351D01*
X133042486Y-68351993D01*
X133008106Y-68353557D01*
X132975174Y-68333712D01*
X132968195Y-68325636D01*
X132962723Y-68315038D01*
X132958703Y-68299194D01*
X132955912Y-68275218D01*
X132954128Y-68240219D01*
X132953129Y-68191309D01*
X132952692Y-68125599D01*
X132952596Y-68040201D01*
X132952596Y-67769267D01*
X132806660Y-67769267D01*
X132795560Y-67769266D01*
X132739042Y-67769041D01*
X132700198Y-67767902D01*
X132674805Y-67765102D01*
X132658644Y-67759895D01*
X132647492Y-67751534D01*
X132637129Y-67739271D01*
X132621281Y-67708583D01*
X132624383Y-67674803D01*
X132650027Y-67642267D01*
X132654969Y-67638550D01*
X132665178Y-67633714D01*
X132680604Y-67629951D01*
X132703726Y-67627128D01*
X132737023Y-67625115D01*
X132782977Y-67623778D01*
X132844068Y-67622987D01*
X132922775Y-67622608D01*
X133021580Y-67622512D01*
X133041607Y-67622513D01*
G37*
X132365574Y-67645090D02*
X132371206Y-67651280D01*
X132376296Y-67659486D01*
X132380383Y-67671262D01*
X132383561Y-67688721D01*
X132385927Y-67713975D01*
X132387578Y-67749135D01*
X132388609Y-67796314D01*
X132389117Y-67857622D01*
X132389199Y-67935172D01*
X132388949Y-68031076D01*
X132388465Y-68147445D01*
X132388397Y-68161620D01*
X132387811Y-68223382D01*
X132386488Y-68267065D01*
X132383943Y-68296446D01*
X132379688Y-68315300D01*
X132373236Y-68327404D01*
X132364102Y-68336534D01*
X132330644Y-68353951D01*
X132295696Y-68351049D01*
X132264793Y-68326545D01*
X132255784Y-68313342D01*
X132248332Y-68294806D01*
X132243964Y-68268778D01*
X132241909Y-68230232D01*
X132241396Y-68174145D01*
X132241396Y-68051490D01*
X131744685Y-68051490D01*
X131744685Y-68186316D01*
X131744612Y-68222107D01*
X131743849Y-68268437D01*
X131741673Y-68298971D01*
X131737376Y-68318002D01*
X131730252Y-68329819D01*
X131719595Y-68338716D01*
X131687344Y-68353786D01*
X131652057Y-68351118D01*
X131621326Y-68326545D01*
X131616671Y-68320290D01*
X131610735Y-68309766D01*
X131606204Y-68295836D01*
X131602888Y-68275762D01*
X131600599Y-68246805D01*
X131599148Y-68206225D01*
X131598345Y-68151285D01*
X131598002Y-68079244D01*
X131597929Y-67987365D01*
X131597929Y-67677930D01*
X131625638Y-67650221D01*
X131657017Y-67627978D01*
X131690246Y-67625289D01*
X131722107Y-67645090D01*
X131730393Y-67654860D01*
X131737805Y-67670752D01*
X131742142Y-67694720D01*
X131744178Y-67731593D01*
X131744685Y-67786201D01*
X131744685Y-67904734D01*
X132241396Y-67904734D01*
X132241396Y-67789221D01*
X132241834Y-67737523D01*
X132243798Y-67702999D01*
X132248314Y-67680423D01*
X132256407Y-67664571D01*
X132269105Y-67650221D01*
X132300483Y-67627978D01*
X132333712Y-67625289D01*
X132365574Y-67645090D01*
G36*
X132365574Y-67645090D02*
G01*
X132371206Y-67651280D01*
X132376296Y-67659486D01*
X132380383Y-67671262D01*
X132383561Y-67688721D01*
X132385927Y-67713975D01*
X132387578Y-67749135D01*
X132388609Y-67796314D01*
X132389117Y-67857622D01*
X132389199Y-67935172D01*
X132388949Y-68031076D01*
X132388465Y-68147445D01*
X132388397Y-68161620D01*
X132387811Y-68223382D01*
X132386488Y-68267065D01*
X132383943Y-68296446D01*
X132379688Y-68315300D01*
X132373236Y-68327404D01*
X132364102Y-68336534D01*
X132330644Y-68353951D01*
X132295696Y-68351049D01*
X132264793Y-68326545D01*
X132255784Y-68313342D01*
X132248332Y-68294806D01*
X132243964Y-68268778D01*
X132241909Y-68230232D01*
X132241396Y-68174145D01*
X132241396Y-68051490D01*
X131744685Y-68051490D01*
X131744685Y-68186316D01*
X131744612Y-68222107D01*
X131743849Y-68268437D01*
X131741673Y-68298971D01*
X131737376Y-68318002D01*
X131730252Y-68329819D01*
X131719595Y-68338716D01*
X131687344Y-68353786D01*
X131652057Y-68351118D01*
X131621326Y-68326545D01*
X131616671Y-68320290D01*
X131610735Y-68309766D01*
X131606204Y-68295836D01*
X131602888Y-68275762D01*
X131600599Y-68246805D01*
X131599148Y-68206225D01*
X131598345Y-68151285D01*
X131598002Y-68079244D01*
X131597929Y-67987365D01*
X131597929Y-67677930D01*
X131625638Y-67650221D01*
X131657017Y-67627978D01*
X131690246Y-67625289D01*
X131722107Y-67645090D01*
X131730393Y-67654860D01*
X131737805Y-67670752D01*
X131742142Y-67694720D01*
X131744178Y-67731593D01*
X131744685Y-67786201D01*
X131744685Y-67904734D01*
X132241396Y-67904734D01*
X132241396Y-67789221D01*
X132241834Y-67737523D01*
X132243798Y-67702999D01*
X132248314Y-67680423D01*
X132256407Y-67664571D01*
X132269105Y-67650221D01*
X132300483Y-67627978D01*
X132333712Y-67625289D01*
X132365574Y-67645090D01*
G37*
X137070973Y-68233841D02*
X137069003Y-68266620D01*
X137066075Y-68289540D01*
X137061998Y-68305342D01*
X137056583Y-68316764D01*
X137049643Y-68326545D01*
X137026246Y-68356290D01*
X136860554Y-68355696D01*
X136825758Y-68355398D01*
X136727275Y-68351967D01*
X136646313Y-68344284D01*
X136579219Y-68331727D01*
X136522336Y-68313672D01*
X136472009Y-68289497D01*
X136468650Y-68287580D01*
X136410838Y-68250862D01*
X136368484Y-68213896D01*
X136335668Y-68170411D01*
X136306468Y-68114134D01*
X136302186Y-68104518D01*
X136279609Y-68041332D01*
X136273874Y-67995778D01*
X136423119Y-67995778D01*
X136428732Y-68020506D01*
X136434458Y-68036384D01*
X136467388Y-68096292D01*
X136514726Y-68142045D01*
X136578492Y-68175181D01*
X136660701Y-68197235D01*
X136663495Y-68197737D01*
X136709780Y-68203700D01*
X136766176Y-68207928D01*
X136821114Y-68209534D01*
X136914996Y-68209534D01*
X136914996Y-67769267D01*
X136827507Y-67769715D01*
X136760587Y-67772191D01*
X136668189Y-67783443D01*
X136588874Y-67802982D01*
X136526900Y-67829956D01*
X136495960Y-67850685D01*
X136467840Y-67880451D01*
X136444500Y-67922879D01*
X136437373Y-67938845D01*
X136425549Y-67971347D01*
X136423119Y-67995778D01*
X136273874Y-67995778D01*
X136272637Y-67985954D01*
X136281239Y-67930928D01*
X136305381Y-67868796D01*
X136306177Y-67867103D01*
X136346628Y-67797681D01*
X136397313Y-67741083D01*
X136460038Y-67696515D01*
X136536614Y-67663186D01*
X136628849Y-67640306D01*
X136738552Y-67627081D01*
X136867531Y-67622720D01*
X136871103Y-67622715D01*
X136931123Y-67622855D01*
X136973054Y-67623891D01*
X137001168Y-67626485D01*
X137019737Y-67631298D01*
X137033034Y-67638989D01*
X137045331Y-67650221D01*
X137073040Y-67677930D01*
X137073040Y-67987365D01*
X137073015Y-68048971D01*
X137072790Y-68127756D01*
X137072172Y-68188466D01*
X137071615Y-68209534D01*
X137070973Y-68233841D01*
G36*
X137070973Y-68233841D02*
G01*
X137069003Y-68266620D01*
X137066075Y-68289540D01*
X137061998Y-68305342D01*
X137056583Y-68316764D01*
X137049643Y-68326545D01*
X137026246Y-68356290D01*
X136860554Y-68355696D01*
X136825758Y-68355398D01*
X136727275Y-68351967D01*
X136646313Y-68344284D01*
X136579219Y-68331727D01*
X136522336Y-68313672D01*
X136472009Y-68289497D01*
X136468650Y-68287580D01*
X136410838Y-68250862D01*
X136368484Y-68213896D01*
X136335668Y-68170411D01*
X136306468Y-68114134D01*
X136302186Y-68104518D01*
X136279609Y-68041332D01*
X136273874Y-67995778D01*
X136423119Y-67995778D01*
X136428732Y-68020506D01*
X136434458Y-68036384D01*
X136467388Y-68096292D01*
X136514726Y-68142045D01*
X136578492Y-68175181D01*
X136660701Y-68197235D01*
X136663495Y-68197737D01*
X136709780Y-68203700D01*
X136766176Y-68207928D01*
X136821114Y-68209534D01*
X136914996Y-68209534D01*
X136914996Y-67769267D01*
X136827507Y-67769715D01*
X136760587Y-67772191D01*
X136668189Y-67783443D01*
X136588874Y-67802982D01*
X136526900Y-67829956D01*
X136495960Y-67850685D01*
X136467840Y-67880451D01*
X136444500Y-67922879D01*
X136437373Y-67938845D01*
X136425549Y-67971347D01*
X136423119Y-67995778D01*
X136273874Y-67995778D01*
X136272637Y-67985954D01*
X136281239Y-67930928D01*
X136305381Y-67868796D01*
X136306177Y-67867103D01*
X136346628Y-67797681D01*
X136397313Y-67741083D01*
X136460038Y-67696515D01*
X136536614Y-67663186D01*
X136628849Y-67640306D01*
X136738552Y-67627081D01*
X136867531Y-67622720D01*
X136871103Y-67622715D01*
X136931123Y-67622855D01*
X136973054Y-67623891D01*
X137001168Y-67626485D01*
X137019737Y-67631298D01*
X137033034Y-67638989D01*
X137045331Y-67650221D01*
X137073040Y-67677930D01*
X137073040Y-67987365D01*
X137073015Y-68048971D01*
X137072790Y-68127756D01*
X137072172Y-68188466D01*
X137071615Y-68209534D01*
X137070973Y-68233841D01*
G37*
X144162657Y-67807872D02*
X144162710Y-67888486D01*
X144162462Y-67989401D01*
X144162423Y-68065062D01*
X144162168Y-68142971D01*
X144161524Y-68202981D01*
X144160320Y-68247709D01*
X144158383Y-68279771D01*
X144155543Y-68301785D01*
X144151628Y-68316369D01*
X144146466Y-68326139D01*
X144139885Y-68333712D01*
X144132917Y-68339946D01*
X144119919Y-68347246D01*
X144100771Y-68351999D01*
X144071368Y-68354737D01*
X144027602Y-68355990D01*
X143965368Y-68356290D01*
X143916422Y-68355914D01*
X143809562Y-68351486D01*
X143720334Y-68341398D01*
X143645536Y-68324810D01*
X143581965Y-68300880D01*
X143526419Y-68268766D01*
X143475694Y-68227627D01*
X143469706Y-68221775D01*
X143432839Y-68173266D01*
X143401739Y-68112458D01*
X143380257Y-68048214D01*
X143374976Y-68009471D01*
X143522193Y-68009471D01*
X143540475Y-68060406D01*
X143570145Y-68106323D01*
X143616842Y-68148732D01*
X143678232Y-68178535D01*
X143757378Y-68197671D01*
X143758868Y-68197909D01*
X143807839Y-68203701D01*
X143866533Y-68207841D01*
X143922574Y-68209449D01*
X144015707Y-68209534D01*
X144015707Y-67769267D01*
X143939507Y-67769253D01*
X143936479Y-67769262D01*
X143885359Y-67771227D01*
X143825256Y-67775952D01*
X143768548Y-67782480D01*
X143718590Y-67791776D01*
X143643838Y-67818045D01*
X143586329Y-67857344D01*
X143544828Y-67910378D01*
X143523611Y-67961645D01*
X143522193Y-68009471D01*
X143374976Y-68009471D01*
X143372240Y-67989401D01*
X143373519Y-67968184D01*
X143385831Y-67910768D01*
X143408360Y-67850858D01*
X143437590Y-67796808D01*
X143470007Y-67756977D01*
X143489548Y-67739955D01*
X143544260Y-67700767D01*
X143604563Y-67670638D01*
X143673759Y-67648677D01*
X143755151Y-67633995D01*
X143852040Y-67625704D01*
X143967729Y-67622912D01*
X144007211Y-67622511D01*
X144052922Y-67622098D01*
X144088723Y-67623902D01*
X144115814Y-67630184D01*
X144135396Y-67643204D01*
X144148670Y-67665223D01*
X144156838Y-67698500D01*
X144161100Y-67745296D01*
X144161697Y-67769267D01*
X144162657Y-67807872D01*
G36*
X144162657Y-67807872D02*
G01*
X144162710Y-67888486D01*
X144162462Y-67989401D01*
X144162423Y-68065062D01*
X144162168Y-68142971D01*
X144161524Y-68202981D01*
X144160320Y-68247709D01*
X144158383Y-68279771D01*
X144155543Y-68301785D01*
X144151628Y-68316369D01*
X144146466Y-68326139D01*
X144139885Y-68333712D01*
X144132917Y-68339946D01*
X144119919Y-68347246D01*
X144100771Y-68351999D01*
X144071368Y-68354737D01*
X144027602Y-68355990D01*
X143965368Y-68356290D01*
X143916422Y-68355914D01*
X143809562Y-68351486D01*
X143720334Y-68341398D01*
X143645536Y-68324810D01*
X143581965Y-68300880D01*
X143526419Y-68268766D01*
X143475694Y-68227627D01*
X143469706Y-68221775D01*
X143432839Y-68173266D01*
X143401739Y-68112458D01*
X143380257Y-68048214D01*
X143374976Y-68009471D01*
X143522193Y-68009471D01*
X143540475Y-68060406D01*
X143570145Y-68106323D01*
X143616842Y-68148732D01*
X143678232Y-68178535D01*
X143757378Y-68197671D01*
X143758868Y-68197909D01*
X143807839Y-68203701D01*
X143866533Y-68207841D01*
X143922574Y-68209449D01*
X144015707Y-68209534D01*
X144015707Y-67769267D01*
X143939507Y-67769253D01*
X143936479Y-67769262D01*
X143885359Y-67771227D01*
X143825256Y-67775952D01*
X143768548Y-67782480D01*
X143718590Y-67791776D01*
X143643838Y-67818045D01*
X143586329Y-67857344D01*
X143544828Y-67910378D01*
X143523611Y-67961645D01*
X143522193Y-68009471D01*
X143374976Y-68009471D01*
X143372240Y-67989401D01*
X143373519Y-67968184D01*
X143385831Y-67910768D01*
X143408360Y-67850858D01*
X143437590Y-67796808D01*
X143470007Y-67756977D01*
X143489548Y-67739955D01*
X143544260Y-67700767D01*
X143604563Y-67670638D01*
X143673759Y-67648677D01*
X143755151Y-67633995D01*
X143852040Y-67625704D01*
X143967729Y-67622912D01*
X144007211Y-67622511D01*
X144052922Y-67622098D01*
X144088723Y-67623902D01*
X144115814Y-67630184D01*
X144135396Y-67643204D01*
X144148670Y-67665223D01*
X144156838Y-67698500D01*
X144161100Y-67745296D01*
X144161697Y-67769267D01*
X144162657Y-67807872D01*
G37*
X139217733Y-67621337D02*
X139229141Y-67627474D01*
X139239690Y-67638136D01*
X139250976Y-67652256D01*
X139255429Y-67658217D01*
X139261428Y-67668713D01*
X139266007Y-67682538D01*
X139269359Y-67702443D01*
X139271673Y-67731177D01*
X139273141Y-67771490D01*
X139273953Y-67826132D01*
X139274300Y-67897852D01*
X139274374Y-67989401D01*
X139274351Y-68047931D01*
X139274132Y-68127018D01*
X139273523Y-68187961D01*
X139272332Y-68233507D01*
X139270369Y-68266408D01*
X139267443Y-68289413D01*
X139263363Y-68305271D01*
X139257937Y-68316731D01*
X139250976Y-68326545D01*
X139220548Y-68350938D01*
X139185605Y-68353817D01*
X139148624Y-68334727D01*
X139144440Y-68331252D01*
X139136264Y-68322724D01*
X139130204Y-68311173D01*
X139125821Y-68293341D01*
X139122679Y-68265969D01*
X139120342Y-68225799D01*
X139118371Y-68169573D01*
X139116329Y-68094034D01*
X139110685Y-67874903D01*
X138845396Y-68115544D01*
X138771562Y-68182320D01*
X138706382Y-68240436D01*
X138654188Y-68285394D01*
X138613113Y-68318316D01*
X138581295Y-68340324D01*
X138556866Y-68352539D01*
X138537964Y-68356084D01*
X138522723Y-68352081D01*
X138509279Y-68341652D01*
X138495767Y-68325919D01*
X138489522Y-68317436D01*
X138483890Y-68306858D01*
X138479679Y-68292700D01*
X138476727Y-68272248D01*
X138474872Y-68242787D01*
X138473953Y-68201606D01*
X138473808Y-68145989D01*
X138474275Y-68073224D01*
X138475192Y-67980596D01*
X138478507Y-67665644D01*
X138505158Y-67644078D01*
X138531223Y-67627886D01*
X138564081Y-67625115D01*
X138598612Y-67644068D01*
X138602924Y-67647653D01*
X138611056Y-67656182D01*
X138617085Y-67667774D01*
X138621446Y-67685680D01*
X138624574Y-67713151D01*
X138626903Y-67753439D01*
X138628869Y-67809796D01*
X138630907Y-67885474D01*
X138636551Y-68105323D01*
X138817174Y-67941529D01*
X138903912Y-67862896D01*
X138979683Y-67794503D01*
X139041820Y-67739153D01*
X139091918Y-67695783D01*
X139131575Y-67663326D01*
X139162388Y-67640718D01*
X139185954Y-67626893D01*
X139203870Y-67620788D01*
X139217733Y-67621337D01*
G36*
X139217733Y-67621337D02*
G01*
X139229141Y-67627474D01*
X139239690Y-67638136D01*
X139250976Y-67652256D01*
X139255429Y-67658217D01*
X139261428Y-67668713D01*
X139266007Y-67682538D01*
X139269359Y-67702443D01*
X139271673Y-67731177D01*
X139273141Y-67771490D01*
X139273953Y-67826132D01*
X139274300Y-67897852D01*
X139274374Y-67989401D01*
X139274351Y-68047931D01*
X139274132Y-68127018D01*
X139273523Y-68187961D01*
X139272332Y-68233507D01*
X139270369Y-68266408D01*
X139267443Y-68289413D01*
X139263363Y-68305271D01*
X139257937Y-68316731D01*
X139250976Y-68326545D01*
X139220548Y-68350938D01*
X139185605Y-68353817D01*
X139148624Y-68334727D01*
X139144440Y-68331252D01*
X139136264Y-68322724D01*
X139130204Y-68311173D01*
X139125821Y-68293341D01*
X139122679Y-68265969D01*
X139120342Y-68225799D01*
X139118371Y-68169573D01*
X139116329Y-68094034D01*
X139110685Y-67874903D01*
X138845396Y-68115544D01*
X138771562Y-68182320D01*
X138706382Y-68240436D01*
X138654188Y-68285394D01*
X138613113Y-68318316D01*
X138581295Y-68340324D01*
X138556866Y-68352539D01*
X138537964Y-68356084D01*
X138522723Y-68352081D01*
X138509279Y-68341652D01*
X138495767Y-68325919D01*
X138489522Y-68317436D01*
X138483890Y-68306858D01*
X138479679Y-68292700D01*
X138476727Y-68272248D01*
X138474872Y-68242787D01*
X138473953Y-68201606D01*
X138473808Y-68145989D01*
X138474275Y-68073224D01*
X138475192Y-67980596D01*
X138478507Y-67665644D01*
X138505158Y-67644078D01*
X138531223Y-67627886D01*
X138564081Y-67625115D01*
X138598612Y-67644068D01*
X138602924Y-67647653D01*
X138611056Y-67656182D01*
X138617085Y-67667774D01*
X138621446Y-67685680D01*
X138624574Y-67713151D01*
X138626903Y-67753439D01*
X138628869Y-67809796D01*
X138630907Y-67885474D01*
X138636551Y-68105323D01*
X138817174Y-67941529D01*
X138903912Y-67862896D01*
X138979683Y-67794503D01*
X139041820Y-67739153D01*
X139091918Y-67695783D01*
X139131575Y-67663326D01*
X139162388Y-67640718D01*
X139185954Y-67626893D01*
X139203870Y-67620788D01*
X139217733Y-67621337D01*
G37*
X140014990Y-67627624D02*
X140120997Y-67643939D01*
X140214809Y-67671990D01*
X140293605Y-67710897D01*
X140354559Y-67759779D01*
X140380629Y-67792640D01*
X140410137Y-67841839D01*
X140435408Y-67895697D01*
X140453058Y-67946864D01*
X140459698Y-67987989D01*
X140458138Y-68007704D01*
X140445197Y-68059037D01*
X140422034Y-68115563D01*
X140392142Y-68169480D01*
X140359013Y-68212984D01*
X140348817Y-68223332D01*
X140281732Y-68275107D01*
X140201606Y-68314999D01*
X140115396Y-68339401D01*
X140060432Y-68347513D01*
X139966979Y-68354118D01*
X139877198Y-68352031D01*
X139794709Y-68341785D01*
X139723126Y-68323915D01*
X139666068Y-68298953D01*
X139627151Y-68267433D01*
X139625776Y-68265457D01*
X139618688Y-68240231D01*
X139614449Y-68192980D01*
X139613040Y-68123516D01*
X139613900Y-68061283D01*
X139618620Y-68013901D01*
X139630310Y-67981798D01*
X139652079Y-67962245D01*
X139687038Y-67952515D01*
X139738296Y-67949878D01*
X139808963Y-67951606D01*
X139857583Y-67954618D01*
X139907779Y-67962811D01*
X139940273Y-67976864D01*
X139957732Y-67998099D01*
X139962823Y-68027839D01*
X139962717Y-68032381D01*
X139954015Y-68067175D01*
X139930005Y-68090592D01*
X139888740Y-68103792D01*
X139828271Y-68107934D01*
X139759796Y-68107934D01*
X139759796Y-68146286D01*
X139759846Y-68155421D01*
X139762067Y-68172672D01*
X139771334Y-68182966D01*
X139792715Y-68189904D01*
X139831276Y-68197086D01*
X139836750Y-68198020D01*
X139933700Y-68207923D01*
X140023692Y-68205004D01*
X140104600Y-68190274D01*
X140174299Y-68164744D01*
X140230664Y-68129423D01*
X140271569Y-68085324D01*
X140294891Y-68033457D01*
X140298503Y-67974833D01*
X140292985Y-67945939D01*
X140266301Y-67890049D01*
X140220113Y-67844390D01*
X140155131Y-67809553D01*
X140072069Y-67786135D01*
X140047395Y-67781686D01*
X139958066Y-67771187D01*
X139878259Y-67772416D01*
X139800166Y-67785351D01*
X139765023Y-67792141D01*
X139719585Y-67793158D01*
X139688270Y-67780627D01*
X139668117Y-67753840D01*
X139661733Y-67725593D01*
X139671219Y-67694369D01*
X139680548Y-67680944D01*
X139714783Y-67657412D01*
X139767405Y-67639540D01*
X139835921Y-67628044D01*
X139917840Y-67623637D01*
X140014990Y-67627624D01*
G36*
X140014990Y-67627624D02*
G01*
X140120997Y-67643939D01*
X140214809Y-67671990D01*
X140293605Y-67710897D01*
X140354559Y-67759779D01*
X140380629Y-67792640D01*
X140410137Y-67841839D01*
X140435408Y-67895697D01*
X140453058Y-67946864D01*
X140459698Y-67987989D01*
X140458138Y-68007704D01*
X140445197Y-68059037D01*
X140422034Y-68115563D01*
X140392142Y-68169480D01*
X140359013Y-68212984D01*
X140348817Y-68223332D01*
X140281732Y-68275107D01*
X140201606Y-68314999D01*
X140115396Y-68339401D01*
X140060432Y-68347513D01*
X139966979Y-68354118D01*
X139877198Y-68352031D01*
X139794709Y-68341785D01*
X139723126Y-68323915D01*
X139666068Y-68298953D01*
X139627151Y-68267433D01*
X139625776Y-68265457D01*
X139618688Y-68240231D01*
X139614449Y-68192980D01*
X139613040Y-68123516D01*
X139613900Y-68061283D01*
X139618620Y-68013901D01*
X139630310Y-67981798D01*
X139652079Y-67962245D01*
X139687038Y-67952515D01*
X139738296Y-67949878D01*
X139808963Y-67951606D01*
X139857583Y-67954618D01*
X139907779Y-67962811D01*
X139940273Y-67976864D01*
X139957732Y-67998099D01*
X139962823Y-68027839D01*
X139962717Y-68032381D01*
X139954015Y-68067175D01*
X139930005Y-68090592D01*
X139888740Y-68103792D01*
X139828271Y-68107934D01*
X139759796Y-68107934D01*
X139759796Y-68146286D01*
X139759846Y-68155421D01*
X139762067Y-68172672D01*
X139771334Y-68182966D01*
X139792715Y-68189904D01*
X139831276Y-68197086D01*
X139836750Y-68198020D01*
X139933700Y-68207923D01*
X140023692Y-68205004D01*
X140104600Y-68190274D01*
X140174299Y-68164744D01*
X140230664Y-68129423D01*
X140271569Y-68085324D01*
X140294891Y-68033457D01*
X140298503Y-67974833D01*
X140292985Y-67945939D01*
X140266301Y-67890049D01*
X140220113Y-67844390D01*
X140155131Y-67809553D01*
X140072069Y-67786135D01*
X140047395Y-67781686D01*
X139958066Y-67771187D01*
X139878259Y-67772416D01*
X139800166Y-67785351D01*
X139765023Y-67792141D01*
X139719585Y-67793158D01*
X139688270Y-67780627D01*
X139668117Y-67753840D01*
X139661733Y-67725593D01*
X139671219Y-67694369D01*
X139680548Y-67680944D01*
X139714783Y-67657412D01*
X139767405Y-67639540D01*
X139835921Y-67628044D01*
X139917840Y-67623637D01*
X140014990Y-67627624D01*
G37*
X138065643Y-67652256D02*
X138070592Y-67658940D01*
X138076436Y-67669511D01*
X138080897Y-67683598D01*
X138084161Y-67703923D01*
X138086414Y-67733210D01*
X138087842Y-67774182D01*
X138088632Y-67829562D01*
X138088969Y-67902073D01*
X138089040Y-67994439D01*
X138089011Y-68060356D01*
X138088779Y-68138673D01*
X138088159Y-68198941D01*
X138086966Y-68243838D01*
X138085019Y-68276047D01*
X138082134Y-68298245D01*
X138078128Y-68313114D01*
X138072819Y-68323334D01*
X138066023Y-68331583D01*
X138061508Y-68336240D01*
X138053278Y-68342727D01*
X138041918Y-68347639D01*
X138024650Y-68351194D01*
X137998695Y-68353612D01*
X137961276Y-68355112D01*
X137909613Y-68355912D01*
X137840929Y-68356232D01*
X137752446Y-68356290D01*
X137732771Y-68356283D01*
X137645746Y-68356017D01*
X137578094Y-68355251D01*
X137527139Y-68353837D01*
X137490207Y-68351625D01*
X137464623Y-68348467D01*
X137447711Y-68344214D01*
X137436797Y-68338716D01*
X137426304Y-68328730D01*
X137413043Y-68297613D01*
X137414226Y-68261725D01*
X137430390Y-68230178D01*
X137432579Y-68227902D01*
X137441267Y-68221634D01*
X137454609Y-68216968D01*
X137475592Y-68213672D01*
X137507203Y-68211513D01*
X137552430Y-68210259D01*
X137614260Y-68209676D01*
X137695679Y-68209534D01*
X137942285Y-68209534D01*
X137942285Y-68051490D01*
X137779846Y-68051490D01*
X137744178Y-68051409D01*
X137688408Y-68050612D01*
X137649270Y-68048607D01*
X137622816Y-68044966D01*
X137605099Y-68039257D01*
X137592169Y-68031052D01*
X137588526Y-68027868D01*
X137570118Y-67996893D01*
X137569484Y-67960557D01*
X137587023Y-67926938D01*
X137587085Y-67926869D01*
X137596756Y-67918243D01*
X137610049Y-67912187D01*
X137630757Y-67908256D01*
X137662668Y-67906001D01*
X137709574Y-67904976D01*
X137775264Y-67904734D01*
X137943411Y-67904734D01*
X137940026Y-67839823D01*
X137936640Y-67774912D01*
X137694563Y-67771859D01*
X137669547Y-67771531D01*
X137587927Y-67770051D01*
X137525608Y-67767667D01*
X137479994Y-67763672D01*
X137448492Y-67757358D01*
X137428507Y-67748019D01*
X137417444Y-67734948D01*
X137412709Y-67717437D01*
X137411707Y-67694780D01*
X137411713Y-67692415D01*
X137412867Y-67672384D01*
X137417664Y-67656591D01*
X137428472Y-67644535D01*
X137447657Y-67635712D01*
X137477585Y-67629620D01*
X137520623Y-67625756D01*
X137579139Y-67623619D01*
X137655497Y-67622705D01*
X137752066Y-67622512D01*
X138042246Y-67622512D01*
X138065643Y-67652256D01*
G36*
X138065643Y-67652256D02*
G01*
X138070592Y-67658940D01*
X138076436Y-67669511D01*
X138080897Y-67683598D01*
X138084161Y-67703923D01*
X138086414Y-67733210D01*
X138087842Y-67774182D01*
X138088632Y-67829562D01*
X138088969Y-67902073D01*
X138089040Y-67994439D01*
X138089011Y-68060356D01*
X138088779Y-68138673D01*
X138088159Y-68198941D01*
X138086966Y-68243838D01*
X138085019Y-68276047D01*
X138082134Y-68298245D01*
X138078128Y-68313114D01*
X138072819Y-68323334D01*
X138066023Y-68331583D01*
X138061508Y-68336240D01*
X138053278Y-68342727D01*
X138041918Y-68347639D01*
X138024650Y-68351194D01*
X137998695Y-68353612D01*
X137961276Y-68355112D01*
X137909613Y-68355912D01*
X137840929Y-68356232D01*
X137752446Y-68356290D01*
X137732771Y-68356283D01*
X137645746Y-68356017D01*
X137578094Y-68355251D01*
X137527139Y-68353837D01*
X137490207Y-68351625D01*
X137464623Y-68348467D01*
X137447711Y-68344214D01*
X137436797Y-68338716D01*
X137426304Y-68328730D01*
X137413043Y-68297613D01*
X137414226Y-68261725D01*
X137430390Y-68230178D01*
X137432579Y-68227902D01*
X137441267Y-68221634D01*
X137454609Y-68216968D01*
X137475592Y-68213672D01*
X137507203Y-68211513D01*
X137552430Y-68210259D01*
X137614260Y-68209676D01*
X137695679Y-68209534D01*
X137942285Y-68209534D01*
X137942285Y-68051490D01*
X137779846Y-68051490D01*
X137744178Y-68051409D01*
X137688408Y-68050612D01*
X137649270Y-68048607D01*
X137622816Y-68044966D01*
X137605099Y-68039257D01*
X137592169Y-68031052D01*
X137588526Y-68027868D01*
X137570118Y-67996893D01*
X137569484Y-67960557D01*
X137587023Y-67926938D01*
X137587085Y-67926869D01*
X137596756Y-67918243D01*
X137610049Y-67912187D01*
X137630757Y-67908256D01*
X137662668Y-67906001D01*
X137709574Y-67904976D01*
X137775264Y-67904734D01*
X137943411Y-67904734D01*
X137940026Y-67839823D01*
X137936640Y-67774912D01*
X137694563Y-67771859D01*
X137669547Y-67771531D01*
X137587927Y-67770051D01*
X137525608Y-67767667D01*
X137479994Y-67763672D01*
X137448492Y-67757358D01*
X137428507Y-67748019D01*
X137417444Y-67734948D01*
X137412709Y-67717437D01*
X137411707Y-67694780D01*
X137411713Y-67692415D01*
X137412867Y-67672384D01*
X137417664Y-67656591D01*
X137428472Y-67644535D01*
X137447657Y-67635712D01*
X137477585Y-67629620D01*
X137520623Y-67625756D01*
X137579139Y-67623619D01*
X137655497Y-67622705D01*
X137752066Y-67622512D01*
X138042246Y-67622512D01*
X138065643Y-67652256D01*
G37*
X142742574Y-67622528D02*
X142819671Y-67622720D01*
X142878617Y-67623305D01*
X142922204Y-67624496D01*
X142953223Y-67626509D01*
X142974465Y-67629557D01*
X142988722Y-67633854D01*
X142998785Y-67639617D01*
X143007446Y-67647057D01*
X143009231Y-67648738D01*
X143016475Y-67656277D01*
X143022117Y-67665295D01*
X143026357Y-67678429D01*
X143029396Y-67698317D01*
X143031434Y-67727596D01*
X143032670Y-67768903D01*
X143033305Y-67824876D01*
X143033540Y-67898152D01*
X143033574Y-67991368D01*
X143033537Y-68064158D01*
X143033288Y-68142334D01*
X143032652Y-68202548D01*
X143031455Y-68247427D01*
X143029524Y-68279597D01*
X143026686Y-68301684D01*
X143022767Y-68316315D01*
X143017595Y-68326115D01*
X143010996Y-68333712D01*
X143007662Y-68336889D01*
X142999140Y-68342999D01*
X142987138Y-68347674D01*
X142968927Y-68351104D01*
X142941780Y-68353481D01*
X142902969Y-68354997D01*
X142849764Y-68355843D01*
X142779438Y-68356210D01*
X142689262Y-68356290D01*
X142647154Y-68356278D01*
X142566007Y-68356096D01*
X142503515Y-68355543D01*
X142456949Y-68354427D01*
X142423581Y-68352558D01*
X142400684Y-68349743D01*
X142385528Y-68345791D01*
X142375386Y-68340511D01*
X142367529Y-68333712D01*
X142352803Y-68312112D01*
X142344951Y-68282912D01*
X142350450Y-68259005D01*
X142367529Y-68232112D01*
X142372508Y-68227504D01*
X142382283Y-68221217D01*
X142396399Y-68216591D01*
X142417894Y-68213375D01*
X142449808Y-68211315D01*
X142495182Y-68210157D01*
X142557053Y-68209647D01*
X142638462Y-68209534D01*
X142886818Y-68209534D01*
X142886818Y-68051490D01*
X142725641Y-68051490D01*
X142689823Y-68051344D01*
X142624199Y-68049621D01*
X142576958Y-68045186D01*
X142545223Y-68037082D01*
X142526117Y-68024351D01*
X142516763Y-68006037D01*
X142514285Y-67981183D01*
X142515082Y-67960927D01*
X142520334Y-67939101D01*
X142533128Y-67923749D01*
X142556468Y-67913754D01*
X142593357Y-67907998D01*
X142646799Y-67905364D01*
X142719798Y-67904734D01*
X142887945Y-67904734D01*
X142884559Y-67839823D01*
X142881174Y-67774912D01*
X142633457Y-67771863D01*
X142570866Y-67770984D01*
X142502405Y-67769540D01*
X142451501Y-67767609D01*
X142415248Y-67764959D01*
X142390741Y-67761355D01*
X142375075Y-67756566D01*
X142365346Y-67750358D01*
X142359331Y-67743955D01*
X142346322Y-67712273D01*
X142349883Y-67676587D01*
X142369658Y-67645529D01*
X142372909Y-67642606D01*
X142381889Y-67636255D01*
X142393993Y-67631402D01*
X142411999Y-67627848D01*
X142438687Y-67625391D01*
X142476837Y-67623830D01*
X142529226Y-67622963D01*
X142598634Y-67622591D01*
X142687841Y-67622512D01*
X142742574Y-67622528D01*
G36*
X142742574Y-67622528D02*
G01*
X142819671Y-67622720D01*
X142878617Y-67623305D01*
X142922204Y-67624496D01*
X142953223Y-67626509D01*
X142974465Y-67629557D01*
X142988722Y-67633854D01*
X142998785Y-67639617D01*
X143007446Y-67647057D01*
X143009231Y-67648738D01*
X143016475Y-67656277D01*
X143022117Y-67665295D01*
X143026357Y-67678429D01*
X143029396Y-67698317D01*
X143031434Y-67727596D01*
X143032670Y-67768903D01*
X143033305Y-67824876D01*
X143033540Y-67898152D01*
X143033574Y-67991368D01*
X143033537Y-68064158D01*
X143033288Y-68142334D01*
X143032652Y-68202548D01*
X143031455Y-68247427D01*
X143029524Y-68279597D01*
X143026686Y-68301684D01*
X143022767Y-68316315D01*
X143017595Y-68326115D01*
X143010996Y-68333712D01*
X143007662Y-68336889D01*
X142999140Y-68342999D01*
X142987138Y-68347674D01*
X142968927Y-68351104D01*
X142941780Y-68353481D01*
X142902969Y-68354997D01*
X142849764Y-68355843D01*
X142779438Y-68356210D01*
X142689262Y-68356290D01*
X142647154Y-68356278D01*
X142566007Y-68356096D01*
X142503515Y-68355543D01*
X142456949Y-68354427D01*
X142423581Y-68352558D01*
X142400684Y-68349743D01*
X142385528Y-68345791D01*
X142375386Y-68340511D01*
X142367529Y-68333712D01*
X142352803Y-68312112D01*
X142344951Y-68282912D01*
X142350450Y-68259005D01*
X142367529Y-68232112D01*
X142372508Y-68227504D01*
X142382283Y-68221217D01*
X142396399Y-68216591D01*
X142417894Y-68213375D01*
X142449808Y-68211315D01*
X142495182Y-68210157D01*
X142557053Y-68209647D01*
X142638462Y-68209534D01*
X142886818Y-68209534D01*
X142886818Y-68051490D01*
X142725641Y-68051490D01*
X142689823Y-68051344D01*
X142624199Y-68049621D01*
X142576958Y-68045186D01*
X142545223Y-68037082D01*
X142526117Y-68024351D01*
X142516763Y-68006037D01*
X142514285Y-67981183D01*
X142515082Y-67960927D01*
X142520334Y-67939101D01*
X142533128Y-67923749D01*
X142556468Y-67913754D01*
X142593357Y-67907998D01*
X142646799Y-67905364D01*
X142719798Y-67904734D01*
X142887945Y-67904734D01*
X142884559Y-67839823D01*
X142881174Y-67774912D01*
X142633457Y-67771863D01*
X142570866Y-67770984D01*
X142502405Y-67769540D01*
X142451501Y-67767609D01*
X142415248Y-67764959D01*
X142390741Y-67761355D01*
X142375075Y-67756566D01*
X142365346Y-67750358D01*
X142359331Y-67743955D01*
X142346322Y-67712273D01*
X142349883Y-67676587D01*
X142369658Y-67645529D01*
X142372909Y-67642606D01*
X142381889Y-67636255D01*
X142393993Y-67631402D01*
X142411999Y-67627848D01*
X142438687Y-67625391D01*
X142476837Y-67623830D01*
X142529226Y-67622963D01*
X142598634Y-67622591D01*
X142687841Y-67622512D01*
X142742574Y-67622528D01*
G37*
X134175542Y-67631923D02*
X134193503Y-67650434D01*
X134214103Y-67681516D01*
X134238935Y-67727201D01*
X134269590Y-67789523D01*
X134307660Y-67870516D01*
X134322294Y-67901899D01*
X134352043Y-67965083D01*
X134378137Y-68019689D01*
X134399132Y-68062735D01*
X134413579Y-68091238D01*
X134420031Y-68102215D01*
X134421390Y-68101634D01*
X134431382Y-68087687D01*
X134448673Y-68058149D01*
X134471270Y-68016532D01*
X134497178Y-67966348D01*
X134513151Y-67934859D01*
X134542101Y-67879506D01*
X134564589Y-67840489D01*
X134582805Y-67815011D01*
X134598936Y-67800276D01*
X134615170Y-67793487D01*
X134633697Y-67791845D01*
X134644200Y-67792320D01*
X134660316Y-67796527D01*
X134675630Y-67807391D01*
X134692228Y-67827664D01*
X134712197Y-67860099D01*
X134737623Y-67907449D01*
X134770592Y-67972467D01*
X134780325Y-67991722D01*
X134804783Y-68038391D01*
X134825018Y-68074554D01*
X134839151Y-68096942D01*
X134845300Y-68102290D01*
X134846667Y-68099018D01*
X134856042Y-68078109D01*
X134872902Y-68041170D01*
X134895819Y-67991319D01*
X134923360Y-67931671D01*
X134954095Y-67865343D01*
X134980810Y-67808122D01*
X135010433Y-67746133D01*
X135033504Y-67700394D01*
X135051483Y-67668353D01*
X135065830Y-67647459D01*
X135078006Y-67635163D01*
X135089472Y-67628911D01*
X135098882Y-67626019D01*
X135123987Y-67625870D01*
X135151130Y-67641213D01*
X135152430Y-67642198D01*
X135174514Y-67664833D01*
X135185563Y-67687058D01*
X135185609Y-67687698D01*
X135181068Y-67705360D01*
X135168204Y-67739926D01*
X135148445Y-67788271D01*
X135123221Y-67847270D01*
X135093959Y-67913800D01*
X135062090Y-67984736D01*
X135029041Y-68056952D01*
X134996241Y-68127325D01*
X134965120Y-68192730D01*
X134937105Y-68250042D01*
X134913626Y-68296137D01*
X134896112Y-68327891D01*
X134885991Y-68342178D01*
X134851583Y-68355547D01*
X134809886Y-68349186D01*
X134804521Y-68344489D01*
X134788692Y-68322338D01*
X134766490Y-68285577D01*
X134740073Y-68237860D01*
X134711600Y-68182838D01*
X134631826Y-68023595D01*
X134558639Y-68170187D01*
X134548943Y-68189477D01*
X134521965Y-68241825D01*
X134497936Y-68286615D01*
X134479172Y-68319599D01*
X134467986Y-68336534D01*
X134466840Y-68337777D01*
X134438719Y-68353064D01*
X134403657Y-68354747D01*
X134372616Y-68342178D01*
X134370190Y-68339329D01*
X134357930Y-68318704D01*
X134338192Y-68281153D01*
X134312288Y-68229325D01*
X134281525Y-68165868D01*
X134247215Y-68093430D01*
X134210665Y-68014661D01*
X134190425Y-67970538D01*
X134153652Y-67889810D01*
X134125195Y-67826132D01*
X134104171Y-67777197D01*
X134089694Y-67740702D01*
X134080879Y-67714340D01*
X134076844Y-67695806D01*
X134076702Y-67682797D01*
X134079570Y-67673006D01*
X134094227Y-67652123D01*
X134120830Y-67631822D01*
X134121585Y-67631480D01*
X134141175Y-67624479D01*
X134158630Y-67623949D01*
X134175542Y-67631923D01*
G36*
X134175542Y-67631923D02*
G01*
X134193503Y-67650434D01*
X134214103Y-67681516D01*
X134238935Y-67727201D01*
X134269590Y-67789523D01*
X134307660Y-67870516D01*
X134322294Y-67901899D01*
X134352043Y-67965083D01*
X134378137Y-68019689D01*
X134399132Y-68062735D01*
X134413579Y-68091238D01*
X134420031Y-68102215D01*
X134421390Y-68101634D01*
X134431382Y-68087687D01*
X134448673Y-68058149D01*
X134471270Y-68016532D01*
X134497178Y-67966348D01*
X134513151Y-67934859D01*
X134542101Y-67879506D01*
X134564589Y-67840489D01*
X134582805Y-67815011D01*
X134598936Y-67800276D01*
X134615170Y-67793487D01*
X134633697Y-67791845D01*
X134644200Y-67792320D01*
X134660316Y-67796527D01*
X134675630Y-67807391D01*
X134692228Y-67827664D01*
X134712197Y-67860099D01*
X134737623Y-67907449D01*
X134770592Y-67972467D01*
X134780325Y-67991722D01*
X134804783Y-68038391D01*
X134825018Y-68074554D01*
X134839151Y-68096942D01*
X134845300Y-68102290D01*
X134846667Y-68099018D01*
X134856042Y-68078109D01*
X134872902Y-68041170D01*
X134895819Y-67991319D01*
X134923360Y-67931671D01*
X134954095Y-67865343D01*
X134980810Y-67808122D01*
X135010433Y-67746133D01*
X135033504Y-67700394D01*
X135051483Y-67668353D01*
X135065830Y-67647459D01*
X135078006Y-67635163D01*
X135089472Y-67628911D01*
X135098882Y-67626019D01*
X135123987Y-67625870D01*
X135151130Y-67641213D01*
X135152430Y-67642198D01*
X135174514Y-67664833D01*
X135185563Y-67687058D01*
X135185609Y-67687698D01*
X135181068Y-67705360D01*
X135168204Y-67739926D01*
X135148445Y-67788271D01*
X135123221Y-67847270D01*
X135093959Y-67913800D01*
X135062090Y-67984736D01*
X135029041Y-68056952D01*
X134996241Y-68127325D01*
X134965120Y-68192730D01*
X134937105Y-68250042D01*
X134913626Y-68296137D01*
X134896112Y-68327891D01*
X134885991Y-68342178D01*
X134851583Y-68355547D01*
X134809886Y-68349186D01*
X134804521Y-68344489D01*
X134788692Y-68322338D01*
X134766490Y-68285577D01*
X134740073Y-68237860D01*
X134711600Y-68182838D01*
X134631826Y-68023595D01*
X134558639Y-68170187D01*
X134548943Y-68189477D01*
X134521965Y-68241825D01*
X134497936Y-68286615D01*
X134479172Y-68319599D01*
X134467986Y-68336534D01*
X134466840Y-68337777D01*
X134438719Y-68353064D01*
X134403657Y-68354747D01*
X134372616Y-68342178D01*
X134370190Y-68339329D01*
X134357930Y-68318704D01*
X134338192Y-68281153D01*
X134312288Y-68229325D01*
X134281525Y-68165868D01*
X134247215Y-68093430D01*
X134210665Y-68014661D01*
X134190425Y-67970538D01*
X134153652Y-67889810D01*
X134125195Y-67826132D01*
X134104171Y-67777197D01*
X134089694Y-67740702D01*
X134080879Y-67714340D01*
X134076844Y-67695806D01*
X134076702Y-67682797D01*
X134079570Y-67673006D01*
X134094227Y-67652123D01*
X134120830Y-67631822D01*
X134121585Y-67631480D01*
X134141175Y-67624479D01*
X134158630Y-67623949D01*
X134175542Y-67631923D01*
G37*
X141726693Y-67623381D02*
X141792940Y-67628811D01*
X141848240Y-67638409D01*
X141899123Y-67653270D01*
X141970435Y-67686403D01*
X142021592Y-67729085D01*
X142052415Y-67781150D01*
X142062729Y-67842428D01*
X142061792Y-67873677D01*
X142056000Y-67898474D01*
X142041193Y-67920144D01*
X142013220Y-67947494D01*
X142005242Y-67954823D01*
X141981532Y-67975726D01*
X141959138Y-67992696D01*
X141935105Y-68006650D01*
X141906477Y-68018501D01*
X141870300Y-68029165D01*
X141823620Y-68039556D01*
X141763481Y-68050591D01*
X141686930Y-68063183D01*
X141591011Y-68078249D01*
X141572648Y-68081283D01*
X141510318Y-68094903D01*
X141465100Y-68110637D01*
X141438816Y-68127708D01*
X141433287Y-68145342D01*
X141435908Y-68149613D01*
X141453840Y-68164678D01*
X141481966Y-68181312D01*
X141494766Y-68187302D01*
X141516064Y-68194495D01*
X141542450Y-68199272D01*
X141578294Y-68202091D01*
X141627968Y-68203409D01*
X141695840Y-68203682D01*
X141713625Y-68203609D01*
X141781246Y-68202498D01*
X141846185Y-68200273D01*
X141901810Y-68197207D01*
X141941491Y-68193572D01*
X141977002Y-68189504D01*
X142006255Y-68188721D01*
X142025155Y-68193321D01*
X142040269Y-68203996D01*
X142043925Y-68207589D01*
X142060267Y-68239363D01*
X142058947Y-68275017D01*
X142039990Y-68305635D01*
X142019620Y-68317241D01*
X141983636Y-68329936D01*
X141941212Y-68339986D01*
X141937762Y-68340585D01*
X141895092Y-68345801D01*
X141837706Y-68350175D01*
X141772689Y-68353263D01*
X141707129Y-68354622D01*
X141690897Y-68354663D01*
X141592584Y-68352186D01*
X141512532Y-68344180D01*
X141447353Y-68329648D01*
X141393657Y-68307594D01*
X141348056Y-68277021D01*
X141307163Y-68236931D01*
X141287042Y-68210704D01*
X141275416Y-68181157D01*
X141272507Y-68141440D01*
X141272648Y-68129471D01*
X141276521Y-68096790D01*
X141288905Y-68070264D01*
X141314070Y-68039416D01*
X141335282Y-68017276D01*
X141361678Y-67994730D01*
X141391395Y-67976362D01*
X141427625Y-67961106D01*
X141473557Y-67947894D01*
X141532384Y-67935659D01*
X141607296Y-67923334D01*
X141701485Y-67909851D01*
X141746797Y-67902841D01*
X141814751Y-67888282D01*
X141863887Y-67871782D01*
X141893454Y-67853884D01*
X141902704Y-67835130D01*
X141890888Y-67816060D01*
X141857256Y-67797216D01*
X141854210Y-67796002D01*
X141807851Y-67783924D01*
X141745201Y-67775724D01*
X141671767Y-67771564D01*
X141593057Y-67771606D01*
X141514579Y-67776014D01*
X141441840Y-67784950D01*
X141437913Y-67785599D01*
X141389097Y-67793306D01*
X141356845Y-67796918D01*
X141335848Y-67796321D01*
X141320794Y-67791399D01*
X141306374Y-67782041D01*
X141305204Y-67781170D01*
X141280687Y-67750796D01*
X141275894Y-67715295D01*
X141291700Y-67680714D01*
X141296246Y-67676258D01*
X141325860Y-67661118D01*
X141372842Y-67647995D01*
X141433146Y-67637195D01*
X141502728Y-67629026D01*
X141577543Y-67623796D01*
X141653546Y-67621812D01*
X141726693Y-67623381D01*
G36*
X141726693Y-67623381D02*
G01*
X141792940Y-67628811D01*
X141848240Y-67638409D01*
X141899123Y-67653270D01*
X141970435Y-67686403D01*
X142021592Y-67729085D01*
X142052415Y-67781150D01*
X142062729Y-67842428D01*
X142061792Y-67873677D01*
X142056000Y-67898474D01*
X142041193Y-67920144D01*
X142013220Y-67947494D01*
X142005242Y-67954823D01*
X141981532Y-67975726D01*
X141959138Y-67992696D01*
X141935105Y-68006650D01*
X141906477Y-68018501D01*
X141870300Y-68029165D01*
X141823620Y-68039556D01*
X141763481Y-68050591D01*
X141686930Y-68063183D01*
X141591011Y-68078249D01*
X141572648Y-68081283D01*
X141510318Y-68094903D01*
X141465100Y-68110637D01*
X141438816Y-68127708D01*
X141433287Y-68145342D01*
X141435908Y-68149613D01*
X141453840Y-68164678D01*
X141481966Y-68181312D01*
X141494766Y-68187302D01*
X141516064Y-68194495D01*
X141542450Y-68199272D01*
X141578294Y-68202091D01*
X141627968Y-68203409D01*
X141695840Y-68203682D01*
X141713625Y-68203609D01*
X141781246Y-68202498D01*
X141846185Y-68200273D01*
X141901810Y-68197207D01*
X141941491Y-68193572D01*
X141977002Y-68189504D01*
X142006255Y-68188721D01*
X142025155Y-68193321D01*
X142040269Y-68203996D01*
X142043925Y-68207589D01*
X142060267Y-68239363D01*
X142058947Y-68275017D01*
X142039990Y-68305635D01*
X142019620Y-68317241D01*
X141983636Y-68329936D01*
X141941212Y-68339986D01*
X141937762Y-68340585D01*
X141895092Y-68345801D01*
X141837706Y-68350175D01*
X141772689Y-68353263D01*
X141707129Y-68354622D01*
X141690897Y-68354663D01*
X141592584Y-68352186D01*
X141512532Y-68344180D01*
X141447353Y-68329648D01*
X141393657Y-68307594D01*
X141348056Y-68277021D01*
X141307163Y-68236931D01*
X141287042Y-68210704D01*
X141275416Y-68181157D01*
X141272507Y-68141440D01*
X141272648Y-68129471D01*
X141276521Y-68096790D01*
X141288905Y-68070264D01*
X141314070Y-68039416D01*
X141335282Y-68017276D01*
X141361678Y-67994730D01*
X141391395Y-67976362D01*
X141427625Y-67961106D01*
X141473557Y-67947894D01*
X141532384Y-67935659D01*
X141607296Y-67923334D01*
X141701485Y-67909851D01*
X141746797Y-67902841D01*
X141814751Y-67888282D01*
X141863887Y-67871782D01*
X141893454Y-67853884D01*
X141902704Y-67835130D01*
X141890888Y-67816060D01*
X141857256Y-67797216D01*
X141854210Y-67796002D01*
X141807851Y-67783924D01*
X141745201Y-67775724D01*
X141671767Y-67771564D01*
X141593057Y-67771606D01*
X141514579Y-67776014D01*
X141441840Y-67784950D01*
X141437913Y-67785599D01*
X141389097Y-67793306D01*
X141356845Y-67796918D01*
X141335848Y-67796321D01*
X141320794Y-67791399D01*
X141306374Y-67782041D01*
X141305204Y-67781170D01*
X141280687Y-67750796D01*
X141275894Y-67715295D01*
X141291700Y-67680714D01*
X141296246Y-67676258D01*
X141325860Y-67661118D01*
X141372842Y-67647995D01*
X141433146Y-67637195D01*
X141502728Y-67629026D01*
X141577543Y-67623796D01*
X141653546Y-67621812D01*
X141726693Y-67623381D01*
G37*
X137874551Y-63315478D02*
X137970108Y-63332968D01*
X138134398Y-63378009D01*
X138288429Y-63441101D01*
X138434349Y-63523360D01*
X138574306Y-63625902D01*
X138710448Y-63749844D01*
X138754313Y-63795106D01*
X138866598Y-63927310D01*
X138959812Y-64065277D01*
X139036559Y-64213195D01*
X139099443Y-64375248D01*
X139103260Y-64386836D01*
X139153347Y-64572837D01*
X139186739Y-64768966D01*
X139203424Y-64971013D01*
X139203391Y-65174770D01*
X139186631Y-65376026D01*
X139153132Y-65570573D01*
X139102884Y-65754201D01*
X139059030Y-65871498D01*
X138981188Y-66034396D01*
X138887668Y-66188311D01*
X138780662Y-66330116D01*
X138662359Y-66456684D01*
X138534951Y-66564886D01*
X138457446Y-66617565D01*
X138330565Y-66687195D01*
X138193083Y-66745913D01*
X138051556Y-66791032D01*
X137912542Y-66819867D01*
X137898437Y-66821551D01*
X137854993Y-66824879D01*
X137797563Y-66827720D01*
X137731962Y-66829818D01*
X137664007Y-66830913D01*
X137537218Y-66828585D01*
X137389513Y-66815581D01*
X137251619Y-66790578D01*
X137117854Y-66752763D01*
X137094402Y-66744334D01*
X137046452Y-66724853D01*
X136989980Y-66699918D01*
X136928219Y-66671167D01*
X136864403Y-66640235D01*
X136801766Y-66608760D01*
X136743543Y-66578379D01*
X136692967Y-66550728D01*
X136653273Y-66527444D01*
X136627694Y-66510163D01*
X136619465Y-66500524D01*
X136620916Y-66497429D01*
X136632090Y-66477524D01*
X136652974Y-66441865D01*
X136682105Y-66392904D01*
X136718021Y-66333091D01*
X136759260Y-66264878D01*
X136804357Y-66190716D01*
X136985625Y-65893453D01*
X137032155Y-65937984D01*
X137123563Y-66016310D01*
X137237174Y-66090884D01*
X137354962Y-66144919D01*
X137475399Y-66177735D01*
X137596957Y-66188656D01*
X137638425Y-66187313D01*
X137755920Y-66169057D01*
X137865929Y-66130062D01*
X137967270Y-66071115D01*
X138058761Y-65993002D01*
X138139220Y-65896509D01*
X138207467Y-65782423D01*
X138223748Y-65748169D01*
X138269822Y-65624685D01*
X138304946Y-65486363D01*
X138329037Y-65337006D01*
X138342013Y-65180418D01*
X138343789Y-65020401D01*
X138334283Y-64860759D01*
X138313412Y-64705295D01*
X138281092Y-64557811D01*
X138237239Y-64422112D01*
X138199822Y-64335521D01*
X138135025Y-64222133D01*
X138059612Y-64128515D01*
X137973258Y-64054404D01*
X137875635Y-63999539D01*
X137766417Y-63963657D01*
X137645279Y-63946496D01*
X137575878Y-63945325D01*
X137453008Y-63959586D01*
X137337504Y-63994686D01*
X137230793Y-64050127D01*
X137134304Y-64125409D01*
X137118560Y-64139885D01*
X137087990Y-64166407D01*
X137065649Y-64183583D01*
X137055531Y-64188232D01*
X137053546Y-64186042D01*
X137039081Y-64167166D01*
X137015240Y-64133842D01*
X136983869Y-64088825D01*
X136946814Y-64034870D01*
X136905923Y-63974730D01*
X136863042Y-63911163D01*
X136820018Y-63846921D01*
X136778697Y-63784760D01*
X136740926Y-63727436D01*
X136708552Y-63677702D01*
X136683422Y-63638313D01*
X136667382Y-63612025D01*
X136662279Y-63601592D01*
X136666890Y-63597386D01*
X136686107Y-63592378D01*
X136695678Y-63589831D01*
X136723649Y-63578694D01*
X136765288Y-63560247D01*
X136816835Y-63536170D01*
X136874530Y-63508144D01*
X136885797Y-63502599D01*
X137063527Y-63423334D01*
X137233330Y-63363830D01*
X137397270Y-63323690D01*
X137557411Y-63302516D01*
X137715817Y-63299911D01*
X137874551Y-63315478D01*
G36*
X137874551Y-63315478D02*
G01*
X137970108Y-63332968D01*
X138134398Y-63378009D01*
X138288429Y-63441101D01*
X138434349Y-63523360D01*
X138574306Y-63625902D01*
X138710448Y-63749844D01*
X138754313Y-63795106D01*
X138866598Y-63927310D01*
X138959812Y-64065277D01*
X139036559Y-64213195D01*
X139099443Y-64375248D01*
X139103260Y-64386836D01*
X139153347Y-64572837D01*
X139186739Y-64768966D01*
X139203424Y-64971013D01*
X139203391Y-65174770D01*
X139186631Y-65376026D01*
X139153132Y-65570573D01*
X139102884Y-65754201D01*
X139059030Y-65871498D01*
X138981188Y-66034396D01*
X138887668Y-66188311D01*
X138780662Y-66330116D01*
X138662359Y-66456684D01*
X138534951Y-66564886D01*
X138457446Y-66617565D01*
X138330565Y-66687195D01*
X138193083Y-66745913D01*
X138051556Y-66791032D01*
X137912542Y-66819867D01*
X137898437Y-66821551D01*
X137854993Y-66824879D01*
X137797563Y-66827720D01*
X137731962Y-66829818D01*
X137664007Y-66830913D01*
X137537218Y-66828585D01*
X137389513Y-66815581D01*
X137251619Y-66790578D01*
X137117854Y-66752763D01*
X137094402Y-66744334D01*
X137046452Y-66724853D01*
X136989980Y-66699918D01*
X136928219Y-66671167D01*
X136864403Y-66640235D01*
X136801766Y-66608760D01*
X136743543Y-66578379D01*
X136692967Y-66550728D01*
X136653273Y-66527444D01*
X136627694Y-66510163D01*
X136619465Y-66500524D01*
X136620916Y-66497429D01*
X136632090Y-66477524D01*
X136652974Y-66441865D01*
X136682105Y-66392904D01*
X136718021Y-66333091D01*
X136759260Y-66264878D01*
X136804357Y-66190716D01*
X136985625Y-65893453D01*
X137032155Y-65937984D01*
X137123563Y-66016310D01*
X137237174Y-66090884D01*
X137354962Y-66144919D01*
X137475399Y-66177735D01*
X137596957Y-66188656D01*
X137638425Y-66187313D01*
X137755920Y-66169057D01*
X137865929Y-66130062D01*
X137967270Y-66071115D01*
X138058761Y-65993002D01*
X138139220Y-65896509D01*
X138207467Y-65782423D01*
X138223748Y-65748169D01*
X138269822Y-65624685D01*
X138304946Y-65486363D01*
X138329037Y-65337006D01*
X138342013Y-65180418D01*
X138343789Y-65020401D01*
X138334283Y-64860759D01*
X138313412Y-64705295D01*
X138281092Y-64557811D01*
X138237239Y-64422112D01*
X138199822Y-64335521D01*
X138135025Y-64222133D01*
X138059612Y-64128515D01*
X137973258Y-64054404D01*
X137875635Y-63999539D01*
X137766417Y-63963657D01*
X137645279Y-63946496D01*
X137575878Y-63945325D01*
X137453008Y-63959586D01*
X137337504Y-63994686D01*
X137230793Y-64050127D01*
X137134304Y-64125409D01*
X137118560Y-64139885D01*
X137087990Y-64166407D01*
X137065649Y-64183583D01*
X137055531Y-64188232D01*
X137053546Y-64186042D01*
X137039081Y-64167166D01*
X137015240Y-64133842D01*
X136983869Y-64088825D01*
X136946814Y-64034870D01*
X136905923Y-63974730D01*
X136863042Y-63911163D01*
X136820018Y-63846921D01*
X136778697Y-63784760D01*
X136740926Y-63727436D01*
X136708552Y-63677702D01*
X136683422Y-63638313D01*
X136667382Y-63612025D01*
X136662279Y-63601592D01*
X136666890Y-63597386D01*
X136686107Y-63592378D01*
X136695678Y-63589831D01*
X136723649Y-63578694D01*
X136765288Y-63560247D01*
X136816835Y-63536170D01*
X136874530Y-63508144D01*
X136885797Y-63502599D01*
X137063527Y-63423334D01*
X137233330Y-63363830D01*
X137397270Y-63323690D01*
X137557411Y-63302516D01*
X137715817Y-63299911D01*
X137874551Y-63315478D01*
G37*
X134071834Y-65596156D02*
X134071108Y-65673603D01*
X134062529Y-65825039D01*
X134043673Y-65961728D01*
X134013677Y-66087721D01*
X133971676Y-66207070D01*
X133916809Y-66323826D01*
X133850007Y-66434624D01*
X133759203Y-66548184D01*
X133655548Y-66643656D01*
X133539727Y-66720518D01*
X133412426Y-66778242D01*
X133274329Y-66816303D01*
X133236633Y-66822111D01*
X133157592Y-66827841D01*
X133069469Y-66828028D01*
X132980076Y-66822984D01*
X132897224Y-66813023D01*
X132828727Y-66798457D01*
X132797875Y-66788809D01*
X132720570Y-66758568D01*
X132643519Y-66721062D01*
X132574040Y-66680059D01*
X132519455Y-66639324D01*
X132496756Y-66619950D01*
X132474041Y-66602107D01*
X132462619Y-66595223D01*
X132461377Y-66596869D01*
X132458568Y-66614650D01*
X132456616Y-66647815D01*
X132455885Y-66691178D01*
X132455885Y-66787134D01*
X131597736Y-66787134D01*
X131632001Y-66726419D01*
X131637195Y-66717313D01*
X131645555Y-66702694D01*
X131653128Y-66688618D01*
X131659952Y-66673985D01*
X131666067Y-66657694D01*
X131671513Y-66638643D01*
X131676327Y-66615731D01*
X131680548Y-66587858D01*
X131684217Y-66553923D01*
X131687371Y-66512824D01*
X131690051Y-66463460D01*
X131692294Y-66404731D01*
X131694139Y-66335535D01*
X131695627Y-66254771D01*
X131696795Y-66161339D01*
X131697684Y-66054137D01*
X131698331Y-65932065D01*
X131698776Y-65794021D01*
X131699058Y-65638904D01*
X131699215Y-65465613D01*
X131699288Y-65273048D01*
X131699314Y-65060107D01*
X131699325Y-64923975D01*
X132501040Y-64923975D01*
X132501040Y-66074166D01*
X132571596Y-66120534D01*
X132612257Y-66144236D01*
X132666386Y-66170084D01*
X132715529Y-66188274D01*
X132779005Y-66203996D01*
X132875171Y-66214986D01*
X132959740Y-66206810D01*
X133033059Y-66179250D01*
X133095477Y-66132087D01*
X133147342Y-66065103D01*
X133189000Y-65978078D01*
X133220802Y-65870795D01*
X133223385Y-65858454D01*
X133231840Y-65797217D01*
X133237503Y-65720137D01*
X133240416Y-65632447D01*
X133240623Y-65539379D01*
X133238170Y-65446165D01*
X133233101Y-65358039D01*
X133225459Y-65280233D01*
X133215288Y-65217978D01*
X133214007Y-65212111D01*
X133184966Y-65101566D01*
X133150450Y-65011020D01*
X133109296Y-64938398D01*
X133060339Y-64881626D01*
X133002414Y-64838629D01*
X132970460Y-64823060D01*
X132897624Y-64804167D01*
X132816283Y-64800910D01*
X132731159Y-64812834D01*
X132646973Y-64839485D01*
X132568448Y-64880407D01*
X132501040Y-64923975D01*
X131699325Y-64923975D01*
X131699333Y-64825690D01*
X131699529Y-63140823D01*
X132604857Y-63140823D01*
X132580425Y-63177512D01*
X132574158Y-63187092D01*
X132548048Y-63233426D01*
X132530309Y-63280547D01*
X132518748Y-63335696D01*
X132511171Y-63406112D01*
X132510679Y-63413095D01*
X132508902Y-63451086D01*
X132507284Y-63505021D01*
X132505839Y-63572148D01*
X132504580Y-63649716D01*
X132503520Y-63734973D01*
X132502669Y-63825169D01*
X132502043Y-63917552D01*
X132501652Y-64009370D01*
X132501510Y-64097872D01*
X132501630Y-64180307D01*
X132502023Y-64253924D01*
X132502702Y-64315971D01*
X132503681Y-64363696D01*
X132504972Y-64394349D01*
X132506587Y-64405178D01*
X132514797Y-64400778D01*
X132536487Y-64385807D01*
X132565854Y-64363893D01*
X132614719Y-64329681D01*
X132702965Y-64283159D01*
X132801756Y-64249491D01*
X132914350Y-64227676D01*
X133044004Y-64216710D01*
X133136510Y-64215664D01*
X133257851Y-64225459D01*
X133367939Y-64249619D01*
X133471229Y-64289230D01*
X133572178Y-64345377D01*
X133617343Y-64376328D01*
X133722751Y-64467560D01*
X133814378Y-64576551D01*
X133892172Y-64703171D01*
X133956081Y-64847290D01*
X134006054Y-65008777D01*
X134042038Y-65187504D01*
X134063983Y-65383340D01*
X134069740Y-65539379D01*
X134071834Y-65596156D01*
G36*
X134071834Y-65596156D02*
G01*
X134071108Y-65673603D01*
X134062529Y-65825039D01*
X134043673Y-65961728D01*
X134013677Y-66087721D01*
X133971676Y-66207070D01*
X133916809Y-66323826D01*
X133850007Y-66434624D01*
X133759203Y-66548184D01*
X133655548Y-66643656D01*
X133539727Y-66720518D01*
X133412426Y-66778242D01*
X133274329Y-66816303D01*
X133236633Y-66822111D01*
X133157592Y-66827841D01*
X133069469Y-66828028D01*
X132980076Y-66822984D01*
X132897224Y-66813023D01*
X132828727Y-66798457D01*
X132797875Y-66788809D01*
X132720570Y-66758568D01*
X132643519Y-66721062D01*
X132574040Y-66680059D01*
X132519455Y-66639324D01*
X132496756Y-66619950D01*
X132474041Y-66602107D01*
X132462619Y-66595223D01*
X132461377Y-66596869D01*
X132458568Y-66614650D01*
X132456616Y-66647815D01*
X132455885Y-66691178D01*
X132455885Y-66787134D01*
X131597736Y-66787134D01*
X131632001Y-66726419D01*
X131637195Y-66717313D01*
X131645555Y-66702694D01*
X131653128Y-66688618D01*
X131659952Y-66673985D01*
X131666067Y-66657694D01*
X131671513Y-66638643D01*
X131676327Y-66615731D01*
X131680548Y-66587858D01*
X131684217Y-66553923D01*
X131687371Y-66512824D01*
X131690051Y-66463460D01*
X131692294Y-66404731D01*
X131694139Y-66335535D01*
X131695627Y-66254771D01*
X131696795Y-66161339D01*
X131697684Y-66054137D01*
X131698331Y-65932065D01*
X131698776Y-65794021D01*
X131699058Y-65638904D01*
X131699215Y-65465613D01*
X131699288Y-65273048D01*
X131699314Y-65060107D01*
X131699325Y-64923975D01*
X132501040Y-64923975D01*
X132501040Y-66074166D01*
X132571596Y-66120534D01*
X132612257Y-66144236D01*
X132666386Y-66170084D01*
X132715529Y-66188274D01*
X132779005Y-66203996D01*
X132875171Y-66214986D01*
X132959740Y-66206810D01*
X133033059Y-66179250D01*
X133095477Y-66132087D01*
X133147342Y-66065103D01*
X133189000Y-65978078D01*
X133220802Y-65870795D01*
X133223385Y-65858454D01*
X133231840Y-65797217D01*
X133237503Y-65720137D01*
X133240416Y-65632447D01*
X133240623Y-65539379D01*
X133238170Y-65446165D01*
X133233101Y-65358039D01*
X133225459Y-65280233D01*
X133215288Y-65217978D01*
X133214007Y-65212111D01*
X133184966Y-65101566D01*
X133150450Y-65011020D01*
X133109296Y-64938398D01*
X133060339Y-64881626D01*
X133002414Y-64838629D01*
X132970460Y-64823060D01*
X132897624Y-64804167D01*
X132816283Y-64800910D01*
X132731159Y-64812834D01*
X132646973Y-64839485D01*
X132568448Y-64880407D01*
X132501040Y-64923975D01*
X131699325Y-64923975D01*
X131699333Y-64825690D01*
X131699529Y-63140823D01*
X132604857Y-63140823D01*
X132580425Y-63177512D01*
X132574158Y-63187092D01*
X132548048Y-63233426D01*
X132530309Y-63280547D01*
X132518748Y-63335696D01*
X132511171Y-63406112D01*
X132510679Y-63413095D01*
X132508902Y-63451086D01*
X132507284Y-63505021D01*
X132505839Y-63572148D01*
X132504580Y-63649716D01*
X132503520Y-63734973D01*
X132502669Y-63825169D01*
X132502043Y-63917552D01*
X132501652Y-64009370D01*
X132501510Y-64097872D01*
X132501630Y-64180307D01*
X132502023Y-64253924D01*
X132502702Y-64315971D01*
X132503681Y-64363696D01*
X132504972Y-64394349D01*
X132506587Y-64405178D01*
X132514797Y-64400778D01*
X132536487Y-64385807D01*
X132565854Y-64363893D01*
X132614719Y-64329681D01*
X132702965Y-64283159D01*
X132801756Y-64249491D01*
X132914350Y-64227676D01*
X133044004Y-64216710D01*
X133136510Y-64215664D01*
X133257851Y-64225459D01*
X133367939Y-64249619D01*
X133471229Y-64289230D01*
X133572178Y-64345377D01*
X133617343Y-64376328D01*
X133722751Y-64467560D01*
X133814378Y-64576551D01*
X133892172Y-64703171D01*
X133956081Y-64847290D01*
X134006054Y-65008777D01*
X134042038Y-65187504D01*
X134063983Y-65383340D01*
X134069740Y-65539379D01*
X134071834Y-65596156D01*
G37*
X136613595Y-65996912D02*
X136613101Y-66030808D01*
X136609472Y-66105647D01*
X136601862Y-66167846D01*
X136589528Y-66224429D01*
X136545153Y-66350521D01*
X136482240Y-66465124D01*
X136402078Y-66566013D01*
X136305580Y-66652369D01*
X136193662Y-66723377D01*
X136067237Y-66778221D01*
X135927218Y-66816083D01*
X135890989Y-66821796D01*
X135811995Y-66827758D01*
X135723681Y-66828091D01*
X135633915Y-66823104D01*
X135550562Y-66813111D01*
X135481491Y-66798423D01*
X135395027Y-66768194D01*
X135285126Y-66713502D01*
X135187796Y-66645988D01*
X135125707Y-66595001D01*
X135122445Y-66691067D01*
X135119183Y-66787134D01*
X134696290Y-66787134D01*
X134685383Y-66787131D01*
X134590896Y-66786825D01*
X134504171Y-66786061D01*
X134427677Y-66784896D01*
X134363883Y-66783387D01*
X134315258Y-66781592D01*
X134284273Y-66779566D01*
X134273396Y-66777367D01*
X134273418Y-66776908D01*
X134280454Y-66761355D01*
X134296274Y-66738516D01*
X134300574Y-66733083D01*
X134311617Y-66719051D01*
X134321151Y-66705631D01*
X134329301Y-66691167D01*
X134336192Y-66674001D01*
X134341951Y-66652479D01*
X134346702Y-66624943D01*
X134350571Y-66589737D01*
X134353684Y-66545205D01*
X134356165Y-66489691D01*
X134358140Y-66421538D01*
X134359734Y-66339090D01*
X134361074Y-66240691D01*
X134362284Y-66124684D01*
X134363489Y-65989413D01*
X134364435Y-65878031D01*
X135165218Y-65878031D01*
X135165218Y-66073907D01*
X135209888Y-66130418D01*
X135222625Y-66145657D01*
X135269444Y-66188289D01*
X135330095Y-66224117D01*
X135340737Y-66229295D01*
X135379516Y-66246190D01*
X135414532Y-66256354D01*
X135454562Y-66261770D01*
X135508381Y-66264423D01*
X135526488Y-66264828D01*
X135601851Y-66261985D01*
X135662583Y-66250065D01*
X135714292Y-66227482D01*
X135762586Y-66192656D01*
X135767643Y-66188243D01*
X135816112Y-66132605D01*
X135844299Y-66068778D01*
X135853592Y-65993727D01*
X135846360Y-65922138D01*
X135821636Y-65859090D01*
X135777089Y-65801203D01*
X135722159Y-65754253D01*
X135649734Y-65714406D01*
X135563180Y-65686708D01*
X135460510Y-65670541D01*
X135339734Y-65665287D01*
X135330847Y-65665302D01*
X135275500Y-65666100D01*
X135228576Y-65667933D01*
X135194793Y-65670556D01*
X135178868Y-65673719D01*
X135174783Y-65680186D01*
X135170412Y-65702320D01*
X135167444Y-65741433D01*
X135165754Y-65799384D01*
X135165218Y-65878031D01*
X134364435Y-65878031D01*
X134364815Y-65833223D01*
X134366068Y-65690457D01*
X134367491Y-65545387D01*
X134369016Y-65419472D01*
X134370773Y-65310881D01*
X134372891Y-65217779D01*
X134375500Y-65138336D01*
X134378730Y-65070718D01*
X134382709Y-65013094D01*
X134387568Y-64963630D01*
X134393437Y-64920495D01*
X134400444Y-64881855D01*
X134408720Y-64845879D01*
X134418394Y-64810734D01*
X134429596Y-64774587D01*
X134442456Y-64735606D01*
X134457930Y-64692536D01*
X134500834Y-64600316D01*
X134554575Y-64520544D01*
X134623416Y-64446410D01*
X134701025Y-64382850D01*
X134805601Y-64321170D01*
X134925084Y-64273647D01*
X135060348Y-64240012D01*
X135212266Y-64219997D01*
X135381712Y-64213334D01*
X135439730Y-64213732D01*
X135505238Y-64215780D01*
X135566533Y-64220149D01*
X135627937Y-64227480D01*
X135693772Y-64238414D01*
X135768360Y-64253592D01*
X135856024Y-64273654D01*
X135961085Y-64299242D01*
X135989646Y-64306265D01*
X136064894Y-64324221D01*
X136135228Y-64340265D01*
X136196407Y-64353473D01*
X136244194Y-64362919D01*
X136274351Y-64367676D01*
X136302623Y-64371355D01*
X136328900Y-64376632D01*
X136338899Y-64381387D01*
X136335792Y-64390226D01*
X136325034Y-64417517D01*
X136307704Y-64460351D01*
X136284966Y-64515870D01*
X136257987Y-64581217D01*
X136227930Y-64653534D01*
X136221333Y-64669324D01*
X136182747Y-64759929D01*
X136151608Y-64829662D01*
X136127757Y-64878850D01*
X136111038Y-64907819D01*
X136101294Y-64916897D01*
X136093606Y-64914850D01*
X136067255Y-64905205D01*
X136028822Y-64889635D01*
X135983662Y-64870260D01*
X135889133Y-64832259D01*
X135752320Y-64791225D01*
X135611129Y-64766057D01*
X135573154Y-64762056D01*
X135469899Y-64759892D01*
X135382792Y-64773067D01*
X135310969Y-64802201D01*
X135253571Y-64847911D01*
X135209736Y-64910817D01*
X135178602Y-64991537D01*
X135159310Y-65090690D01*
X135151890Y-65149669D01*
X135313776Y-65142890D01*
X135440335Y-65141258D01*
X135591791Y-65147639D01*
X135740236Y-65162222D01*
X135876418Y-65184327D01*
X135941085Y-65199266D01*
X136073330Y-65242186D01*
X136195602Y-65298785D01*
X136305525Y-65367462D01*
X136400723Y-65446615D01*
X136478820Y-65534641D01*
X136537439Y-65629938D01*
X136561435Y-65682309D01*
X136587072Y-65753035D01*
X136603318Y-65824257D01*
X136611662Y-65903157D01*
X136613530Y-65993727D01*
X136613595Y-65996912D01*
G36*
X136613595Y-65996912D02*
G01*
X136613101Y-66030808D01*
X136609472Y-66105647D01*
X136601862Y-66167846D01*
X136589528Y-66224429D01*
X136545153Y-66350521D01*
X136482240Y-66465124D01*
X136402078Y-66566013D01*
X136305580Y-66652369D01*
X136193662Y-66723377D01*
X136067237Y-66778221D01*
X135927218Y-66816083D01*
X135890989Y-66821796D01*
X135811995Y-66827758D01*
X135723681Y-66828091D01*
X135633915Y-66823104D01*
X135550562Y-66813111D01*
X135481491Y-66798423D01*
X135395027Y-66768194D01*
X135285126Y-66713502D01*
X135187796Y-66645988D01*
X135125707Y-66595001D01*
X135122445Y-66691067D01*
X135119183Y-66787134D01*
X134696290Y-66787134D01*
X134685383Y-66787131D01*
X134590896Y-66786825D01*
X134504171Y-66786061D01*
X134427677Y-66784896D01*
X134363883Y-66783387D01*
X134315258Y-66781592D01*
X134284273Y-66779566D01*
X134273396Y-66777367D01*
X134273418Y-66776908D01*
X134280454Y-66761355D01*
X134296274Y-66738516D01*
X134300574Y-66733083D01*
X134311617Y-66719051D01*
X134321151Y-66705631D01*
X134329301Y-66691167D01*
X134336192Y-66674001D01*
X134341951Y-66652479D01*
X134346702Y-66624943D01*
X134350571Y-66589737D01*
X134353684Y-66545205D01*
X134356165Y-66489691D01*
X134358140Y-66421538D01*
X134359734Y-66339090D01*
X134361074Y-66240691D01*
X134362284Y-66124684D01*
X134363489Y-65989413D01*
X134364435Y-65878031D01*
X135165218Y-65878031D01*
X135165218Y-66073907D01*
X135209888Y-66130418D01*
X135222625Y-66145657D01*
X135269444Y-66188289D01*
X135330095Y-66224117D01*
X135340737Y-66229295D01*
X135379516Y-66246190D01*
X135414532Y-66256354D01*
X135454562Y-66261770D01*
X135508381Y-66264423D01*
X135526488Y-66264828D01*
X135601851Y-66261985D01*
X135662583Y-66250065D01*
X135714292Y-66227482D01*
X135762586Y-66192656D01*
X135767643Y-66188243D01*
X135816112Y-66132605D01*
X135844299Y-66068778D01*
X135853592Y-65993727D01*
X135846360Y-65922138D01*
X135821636Y-65859090D01*
X135777089Y-65801203D01*
X135722159Y-65754253D01*
X135649734Y-65714406D01*
X135563180Y-65686708D01*
X135460510Y-65670541D01*
X135339734Y-65665287D01*
X135330847Y-65665302D01*
X135275500Y-65666100D01*
X135228576Y-65667933D01*
X135194793Y-65670556D01*
X135178868Y-65673719D01*
X135174783Y-65680186D01*
X135170412Y-65702320D01*
X135167444Y-65741433D01*
X135165754Y-65799384D01*
X135165218Y-65878031D01*
X134364435Y-65878031D01*
X134364815Y-65833223D01*
X134366068Y-65690457D01*
X134367491Y-65545387D01*
X134369016Y-65419472D01*
X134370773Y-65310881D01*
X134372891Y-65217779D01*
X134375500Y-65138336D01*
X134378730Y-65070718D01*
X134382709Y-65013094D01*
X134387568Y-64963630D01*
X134393437Y-64920495D01*
X134400444Y-64881855D01*
X134408720Y-64845879D01*
X134418394Y-64810734D01*
X134429596Y-64774587D01*
X134442456Y-64735606D01*
X134457930Y-64692536D01*
X134500834Y-64600316D01*
X134554575Y-64520544D01*
X134623416Y-64446410D01*
X134701025Y-64382850D01*
X134805601Y-64321170D01*
X134925084Y-64273647D01*
X135060348Y-64240012D01*
X135212266Y-64219997D01*
X135381712Y-64213334D01*
X135439730Y-64213732D01*
X135505238Y-64215780D01*
X135566533Y-64220149D01*
X135627937Y-64227480D01*
X135693772Y-64238414D01*
X135768360Y-64253592D01*
X135856024Y-64273654D01*
X135961085Y-64299242D01*
X135989646Y-64306265D01*
X136064894Y-64324221D01*
X136135228Y-64340265D01*
X136196407Y-64353473D01*
X136244194Y-64362919D01*
X136274351Y-64367676D01*
X136302623Y-64371355D01*
X136328900Y-64376632D01*
X136338899Y-64381387D01*
X136335792Y-64390226D01*
X136325034Y-64417517D01*
X136307704Y-64460351D01*
X136284966Y-64515870D01*
X136257987Y-64581217D01*
X136227930Y-64653534D01*
X136221333Y-64669324D01*
X136182747Y-64759929D01*
X136151608Y-64829662D01*
X136127757Y-64878850D01*
X136111038Y-64907819D01*
X136101294Y-64916897D01*
X136093606Y-64914850D01*
X136067255Y-64905205D01*
X136028822Y-64889635D01*
X135983662Y-64870260D01*
X135889133Y-64832259D01*
X135752320Y-64791225D01*
X135611129Y-64766057D01*
X135573154Y-64762056D01*
X135469899Y-64759892D01*
X135382792Y-64773067D01*
X135310969Y-64802201D01*
X135253571Y-64847911D01*
X135209736Y-64910817D01*
X135178602Y-64991537D01*
X135159310Y-65090690D01*
X135151890Y-65149669D01*
X135313776Y-65142890D01*
X135440335Y-65141258D01*
X135591791Y-65147639D01*
X135740236Y-65162222D01*
X135876418Y-65184327D01*
X135941085Y-65199266D01*
X136073330Y-65242186D01*
X136195602Y-65298785D01*
X136305525Y-65367462D01*
X136400723Y-65446615D01*
X136478820Y-65534641D01*
X136537439Y-65629938D01*
X136561435Y-65682309D01*
X136587072Y-65753035D01*
X136603318Y-65824257D01*
X136611662Y-65903157D01*
X136613530Y-65993727D01*
X136613595Y-65996912D01*
G37*
X144161454Y-63465237D02*
X144161899Y-63596456D01*
X144162202Y-63743661D01*
X144162388Y-63907794D01*
X144162482Y-64089797D01*
X144162511Y-64290610D01*
X144162501Y-64511177D01*
X144162476Y-64752437D01*
X144162462Y-65015334D01*
X144162462Y-65057485D01*
X144162486Y-65318113D01*
X144162525Y-65557241D01*
X144162548Y-65775805D01*
X144162527Y-65974740D01*
X144162433Y-66154980D01*
X144162235Y-66317460D01*
X144161903Y-66463115D01*
X144161409Y-66592879D01*
X144160723Y-66707688D01*
X144159816Y-66808475D01*
X144158657Y-66896175D01*
X144157218Y-66971724D01*
X144155469Y-67036056D01*
X144153380Y-67090106D01*
X144150923Y-67134808D01*
X144148067Y-67171097D01*
X144144783Y-67199908D01*
X144141042Y-67222176D01*
X144136814Y-67238835D01*
X144132069Y-67250820D01*
X144126779Y-67259066D01*
X144120913Y-67264507D01*
X144114442Y-67268079D01*
X144107337Y-67270715D01*
X144099568Y-67273351D01*
X144091106Y-67276922D01*
X144086748Y-67278590D01*
X144078235Y-67280556D01*
X144065534Y-67282356D01*
X144047725Y-67284000D01*
X144023889Y-67285492D01*
X143993106Y-67286842D01*
X143954457Y-67288056D01*
X143907022Y-67289142D01*
X143849883Y-67290106D01*
X143782119Y-67290956D01*
X143702811Y-67291698D01*
X143611039Y-67292342D01*
X143505884Y-67292892D01*
X143386427Y-67293358D01*
X143251748Y-67293745D01*
X143100928Y-67294061D01*
X142933046Y-67294314D01*
X142747185Y-67294511D01*
X142542423Y-67294658D01*
X142317842Y-67294763D01*
X142072522Y-67294834D01*
X141805544Y-67294877D01*
X141767161Y-67294882D01*
X141501762Y-67294925D01*
X141257890Y-67294970D01*
X141034623Y-67294993D01*
X140831036Y-67294969D01*
X140646207Y-67294875D01*
X140479213Y-67294688D01*
X140329130Y-67294384D01*
X140195036Y-67293939D01*
X140076006Y-67293330D01*
X139971119Y-67292534D01*
X139879450Y-67291525D01*
X139800077Y-67290282D01*
X139732077Y-67288780D01*
X139674526Y-67286996D01*
X139626502Y-67284906D01*
X139587080Y-67282487D01*
X139555339Y-67279715D01*
X139530354Y-67276566D01*
X139511204Y-67273017D01*
X139496963Y-67269043D01*
X139486711Y-67264623D01*
X139479522Y-67259731D01*
X139474475Y-67254345D01*
X139470645Y-67248441D01*
X139467111Y-67241994D01*
X139462948Y-67234982D01*
X139461865Y-67233132D01*
X139459653Y-67227625D01*
X139457626Y-67219313D01*
X139455778Y-67207254D01*
X139454101Y-67190508D01*
X139452585Y-67168132D01*
X139451223Y-67139185D01*
X139450007Y-67102725D01*
X139448929Y-67057812D01*
X139447980Y-67003502D01*
X139447152Y-66938855D01*
X139446437Y-66862929D01*
X139445827Y-66774783D01*
X139445782Y-66765938D01*
X139737218Y-66765938D01*
X139741100Y-66767210D01*
X139764360Y-66769236D01*
X139806714Y-66771071D01*
X139865972Y-66772672D01*
X139939947Y-66773994D01*
X140026450Y-66774993D01*
X140123292Y-66775625D01*
X140228285Y-66775845D01*
X140926491Y-66775845D01*
X142080930Y-66775845D01*
X142080296Y-66699645D01*
X142081414Y-66657605D01*
X142087144Y-66621779D01*
X142099730Y-66584217D01*
X142121408Y-66536022D01*
X142124629Y-66529342D01*
X142150028Y-66479804D01*
X142176836Y-66431814D01*
X142199757Y-66394911D01*
X142204325Y-66388279D01*
X142226356Y-66357038D01*
X142258533Y-66312099D01*
X142299297Y-66255592D01*
X142347085Y-66189649D01*
X142400338Y-66116402D01*
X142457495Y-66037981D01*
X142516995Y-65956517D01*
X142577277Y-65874143D01*
X142636780Y-65792989D01*
X142693945Y-65715187D01*
X142747210Y-65642868D01*
X142795014Y-65578163D01*
X142835797Y-65523204D01*
X142867998Y-65480121D01*
X142890056Y-65451047D01*
X142900411Y-65438112D01*
X142904884Y-65433796D01*
X142909076Y-65431757D01*
X142912483Y-65434371D01*
X142915165Y-65443431D01*
X142917181Y-65460730D01*
X142918588Y-65488059D01*
X142919445Y-65527210D01*
X142919810Y-65579978D01*
X142919743Y-65648152D01*
X142919300Y-65733527D01*
X142918542Y-65837894D01*
X142917525Y-65963045D01*
X142917148Y-66007745D01*
X142916009Y-66128840D01*
X142914812Y-66230133D01*
X142913476Y-66313707D01*
X142911917Y-66381649D01*
X142910055Y-66436044D01*
X142907806Y-66478977D01*
X142905088Y-66512534D01*
X142901819Y-66538800D01*
X142897918Y-66559861D01*
X142893301Y-66577802D01*
X142885032Y-66604215D01*
X142861423Y-66666217D01*
X142835525Y-66719018D01*
X142810375Y-66756090D01*
X142809179Y-66757520D01*
X142807008Y-66761869D01*
X142809168Y-66765471D01*
X142817484Y-66768396D01*
X142833780Y-66770714D01*
X142859881Y-66772496D01*
X142897611Y-66773812D01*
X142948796Y-66774731D01*
X143015260Y-66775323D01*
X143098827Y-66775660D01*
X143201323Y-66775810D01*
X143324572Y-66775845D01*
X143856136Y-66775845D01*
X143817363Y-66718228D01*
X143811272Y-66709338D01*
X143800816Y-66694514D01*
X143791419Y-66680867D01*
X143783023Y-66667210D01*
X143775573Y-66652356D01*
X143769013Y-66635115D01*
X143763286Y-66614300D01*
X143758335Y-66588725D01*
X143754106Y-66557200D01*
X143750541Y-66518538D01*
X143747584Y-66471552D01*
X143745180Y-66415053D01*
X143743271Y-66347854D01*
X143741802Y-66268767D01*
X143740716Y-66176605D01*
X143739958Y-66070179D01*
X143739470Y-65948302D01*
X143739198Y-65809786D01*
X143739083Y-65653444D01*
X143739071Y-65478087D01*
X143739105Y-65282527D01*
X143739129Y-65065578D01*
X143739120Y-64942958D01*
X143739083Y-64737892D01*
X143739067Y-64553561D01*
X143739128Y-64388779D01*
X143739324Y-64242361D01*
X143739710Y-64113119D01*
X143740345Y-63999867D01*
X143741284Y-63901420D01*
X143742585Y-63816589D01*
X143744304Y-63744189D01*
X143746499Y-63683034D01*
X143749225Y-63631937D01*
X143752541Y-63589712D01*
X143756502Y-63555172D01*
X143761165Y-63527131D01*
X143766587Y-63504403D01*
X143772826Y-63485801D01*
X143779937Y-63470138D01*
X143787978Y-63456229D01*
X143797006Y-63442886D01*
X143807076Y-63428924D01*
X143818247Y-63413156D01*
X143858037Y-63355312D01*
X142798154Y-63355312D01*
X142836151Y-63418411D01*
X142850833Y-63443450D01*
X142865371Y-63471031D01*
X142877467Y-63499145D01*
X142887372Y-63529996D01*
X142895334Y-63565789D01*
X142901601Y-63608728D01*
X142906422Y-63661019D01*
X142910046Y-63724864D01*
X142912721Y-63802470D01*
X142914697Y-63896039D01*
X142916222Y-64007778D01*
X142917544Y-64139890D01*
X142918453Y-64259879D01*
X142918860Y-64376508D01*
X142918607Y-64471976D01*
X142917697Y-64546001D01*
X142916133Y-64598300D01*
X142913919Y-64628594D01*
X142911060Y-64636601D01*
X142908001Y-64633303D01*
X142889846Y-64611853D01*
X142860115Y-64575334D01*
X142820479Y-64525887D01*
X142772611Y-64465652D01*
X142718183Y-64396772D01*
X142658867Y-64321388D01*
X142596335Y-64241641D01*
X142532261Y-64159673D01*
X142468315Y-64077625D01*
X142406171Y-63997639D01*
X142347501Y-63921856D01*
X142293977Y-63852418D01*
X142247270Y-63791466D01*
X142209054Y-63741141D01*
X142181001Y-63703585D01*
X142164783Y-63680940D01*
X142119475Y-63608657D01*
X142079501Y-63528908D01*
X142057970Y-63460633D01*
X142054667Y-63403289D01*
X142059956Y-63355312D01*
X140928196Y-63355562D01*
X140967707Y-63386167D01*
X140977088Y-63393534D01*
X141040023Y-63447883D01*
X141108837Y-63515704D01*
X141185436Y-63598961D01*
X141271728Y-63699623D01*
X141288892Y-63720292D01*
X141329673Y-63769854D01*
X141379428Y-63830771D01*
X141436795Y-63901343D01*
X141500409Y-63979869D01*
X141568909Y-64064649D01*
X141640930Y-64153982D01*
X141715110Y-64246167D01*
X141730357Y-64265147D01*
X141790086Y-64339505D01*
X141864493Y-64432293D01*
X141936971Y-64522833D01*
X142006154Y-64609423D01*
X142070681Y-64690363D01*
X142129187Y-64763951D01*
X142180310Y-64828489D01*
X142222687Y-64882274D01*
X142254955Y-64923607D01*
X142275750Y-64950787D01*
X142283709Y-64962113D01*
X142281951Y-64966216D01*
X142269070Y-64986779D01*
X142244725Y-65023006D01*
X142210087Y-65073269D01*
X142166326Y-65135937D01*
X142114615Y-65209381D01*
X142056124Y-65291972D01*
X141992024Y-65382081D01*
X141923486Y-65478076D01*
X141851683Y-65578330D01*
X141777784Y-65681213D01*
X141702961Y-65785095D01*
X141628385Y-65888346D01*
X141555227Y-65989337D01*
X141484659Y-66086439D01*
X141417851Y-66178022D01*
X141355975Y-66262456D01*
X141300201Y-66338112D01*
X141251702Y-66403361D01*
X141211647Y-66456573D01*
X141181209Y-66496118D01*
X141160784Y-66521471D01*
X141114739Y-66575740D01*
X141064452Y-66632220D01*
X141017655Y-66682114D01*
X140926491Y-66775845D01*
X140228285Y-66775845D01*
X140297196Y-66775794D01*
X140395447Y-66775536D01*
X140484870Y-66775082D01*
X140563173Y-66774455D01*
X140628063Y-66773680D01*
X140677251Y-66772780D01*
X140708444Y-66771779D01*
X140719351Y-66770702D01*
X140718162Y-66767482D01*
X140708016Y-66749897D01*
X140690880Y-66723603D01*
X140682380Y-66711136D01*
X140673169Y-66697067D01*
X140665073Y-66682796D01*
X140658025Y-66666924D01*
X140651957Y-66648054D01*
X140646801Y-66624786D01*
X140642491Y-66595723D01*
X140638959Y-66559466D01*
X140636137Y-66514615D01*
X140633958Y-66459773D01*
X140632354Y-66393542D01*
X140631259Y-66314522D01*
X140630605Y-66221316D01*
X140630324Y-66112524D01*
X140630349Y-65986748D01*
X140630612Y-65842590D01*
X140631046Y-65678652D01*
X140631585Y-65493534D01*
X140632119Y-65314677D01*
X140632645Y-65155819D01*
X140633190Y-65016761D01*
X140633785Y-64896110D01*
X140634459Y-64792473D01*
X140635243Y-64704456D01*
X140636166Y-64630668D01*
X140637259Y-64569714D01*
X140638552Y-64520202D01*
X140640075Y-64480738D01*
X140641859Y-64449929D01*
X140643932Y-64426383D01*
X140646326Y-64408705D01*
X140649070Y-64395504D01*
X140652196Y-64385385D01*
X140655732Y-64376956D01*
X140659631Y-64368820D01*
X140679278Y-64331989D01*
X140698065Y-64301836D01*
X140699112Y-64300353D01*
X140713442Y-64278104D01*
X140719351Y-64265147D01*
X140718344Y-64264694D01*
X140701145Y-64263248D01*
X140664496Y-64261925D01*
X140610802Y-64260761D01*
X140542470Y-64259792D01*
X140461904Y-64259056D01*
X140371510Y-64258587D01*
X140273693Y-64258423D01*
X139828035Y-64258423D01*
X139824960Y-65435290D01*
X139821885Y-66612156D01*
X139795247Y-66671067D01*
X139783325Y-66695628D01*
X139766086Y-66725879D01*
X139752914Y-66743005D01*
X139744916Y-66751036D01*
X139737218Y-66765938D01*
X139445782Y-66765938D01*
X139445314Y-66673474D01*
X139444890Y-66558062D01*
X139444546Y-66427605D01*
X139444274Y-66281161D01*
X139444067Y-66117789D01*
X139443916Y-65936546D01*
X139443812Y-65736493D01*
X139443748Y-65516686D01*
X139443716Y-65276184D01*
X139443707Y-65014047D01*
X139443707Y-62822476D01*
X139482089Y-62784094D01*
X139509195Y-62760356D01*
X139536093Y-62748556D01*
X139572400Y-62745712D01*
X139624329Y-62745712D01*
X139624329Y-62833651D01*
X139626267Y-62883547D01*
X139645039Y-62993968D01*
X139682057Y-63095432D01*
X139735209Y-63186597D01*
X139802386Y-63266118D01*
X139881478Y-63332650D01*
X139970374Y-63384851D01*
X140066965Y-63421375D01*
X140169140Y-63440879D01*
X140274790Y-63442018D01*
X140381804Y-63423450D01*
X140488072Y-63383829D01*
X140585059Y-63325961D01*
X140670133Y-63251129D01*
X140738855Y-63163060D01*
X140789758Y-63064061D01*
X140821375Y-62956438D01*
X140832240Y-62842499D01*
X140832240Y-62745712D01*
X142452593Y-62745712D01*
X142663737Y-62745725D01*
X142867860Y-62745775D01*
X143051526Y-62745875D01*
X143215831Y-62746037D01*
X143361869Y-62746274D01*
X143490734Y-62746598D01*
X143603523Y-62747020D01*
X143701328Y-62747554D01*
X143785244Y-62748212D01*
X143856367Y-62749006D01*
X143915790Y-62749949D01*
X143964608Y-62751053D01*
X144003917Y-62752329D01*
X144034809Y-62753792D01*
X144058381Y-62755452D01*
X144075726Y-62757323D01*
X144087939Y-62759417D01*
X144096115Y-62761745D01*
X144101348Y-62764321D01*
X144107344Y-62767890D01*
X144114119Y-62771423D01*
X144120318Y-62774933D01*
X144125966Y-62779363D01*
X144131087Y-62785653D01*
X144135709Y-62794746D01*
X144139855Y-62807584D01*
X144143553Y-62825107D01*
X144146827Y-62848258D01*
X144149703Y-62877979D01*
X144152207Y-62915210D01*
X144154364Y-62960894D01*
X144156200Y-63015972D01*
X144157740Y-63081386D01*
X144159010Y-63158078D01*
X144160035Y-63246989D01*
X144160841Y-63349062D01*
X144160874Y-63355312D01*
X144161454Y-63465237D01*
G36*
X144161454Y-63465237D02*
G01*
X144161899Y-63596456D01*
X144162202Y-63743661D01*
X144162388Y-63907794D01*
X144162482Y-64089797D01*
X144162511Y-64290610D01*
X144162501Y-64511177D01*
X144162476Y-64752437D01*
X144162462Y-65015334D01*
X144162462Y-65057485D01*
X144162486Y-65318113D01*
X144162525Y-65557241D01*
X144162548Y-65775805D01*
X144162527Y-65974740D01*
X144162433Y-66154980D01*
X144162235Y-66317460D01*
X144161903Y-66463115D01*
X144161409Y-66592879D01*
X144160723Y-66707688D01*
X144159816Y-66808475D01*
X144158657Y-66896175D01*
X144157218Y-66971724D01*
X144155469Y-67036056D01*
X144153380Y-67090106D01*
X144150923Y-67134808D01*
X144148067Y-67171097D01*
X144144783Y-67199908D01*
X144141042Y-67222176D01*
X144136814Y-67238835D01*
X144132069Y-67250820D01*
X144126779Y-67259066D01*
X144120913Y-67264507D01*
X144114442Y-67268079D01*
X144107337Y-67270715D01*
X144099568Y-67273351D01*
X144091106Y-67276922D01*
X144086748Y-67278590D01*
X144078235Y-67280556D01*
X144065534Y-67282356D01*
X144047725Y-67284000D01*
X144023889Y-67285492D01*
X143993106Y-67286842D01*
X143954457Y-67288056D01*
X143907022Y-67289142D01*
X143849883Y-67290106D01*
X143782119Y-67290956D01*
X143702811Y-67291698D01*
X143611039Y-67292342D01*
X143505884Y-67292892D01*
X143386427Y-67293358D01*
X143251748Y-67293745D01*
X143100928Y-67294061D01*
X142933046Y-67294314D01*
X142747185Y-67294511D01*
X142542423Y-67294658D01*
X142317842Y-67294763D01*
X142072522Y-67294834D01*
X141805544Y-67294877D01*
X141767161Y-67294882D01*
X141501762Y-67294925D01*
X141257890Y-67294970D01*
X141034623Y-67294993D01*
X140831036Y-67294969D01*
X140646207Y-67294875D01*
X140479213Y-67294688D01*
X140329130Y-67294384D01*
X140195036Y-67293939D01*
X140076006Y-67293330D01*
X139971119Y-67292534D01*
X139879450Y-67291525D01*
X139800077Y-67290282D01*
X139732077Y-67288780D01*
X139674526Y-67286996D01*
X139626502Y-67284906D01*
X139587080Y-67282487D01*
X139555339Y-67279715D01*
X139530354Y-67276566D01*
X139511204Y-67273017D01*
X139496963Y-67269043D01*
X139486711Y-67264623D01*
X139479522Y-67259731D01*
X139474475Y-67254345D01*
X139470645Y-67248441D01*
X139467111Y-67241994D01*
X139462948Y-67234982D01*
X139461865Y-67233132D01*
X139459653Y-67227625D01*
X139457626Y-67219313D01*
X139455778Y-67207254D01*
X139454101Y-67190508D01*
X139452585Y-67168132D01*
X139451223Y-67139185D01*
X139450007Y-67102725D01*
X139448929Y-67057812D01*
X139447980Y-67003502D01*
X139447152Y-66938855D01*
X139446437Y-66862929D01*
X139445827Y-66774783D01*
X139445782Y-66765938D01*
X139737218Y-66765938D01*
X139741100Y-66767210D01*
X139764360Y-66769236D01*
X139806714Y-66771071D01*
X139865972Y-66772672D01*
X139939947Y-66773994D01*
X140026450Y-66774993D01*
X140123292Y-66775625D01*
X140228285Y-66775845D01*
X140926491Y-66775845D01*
X142080930Y-66775845D01*
X142080296Y-66699645D01*
X142081414Y-66657605D01*
X142087144Y-66621779D01*
X142099730Y-66584217D01*
X142121408Y-66536022D01*
X142124629Y-66529342D01*
X142150028Y-66479804D01*
X142176836Y-66431814D01*
X142199757Y-66394911D01*
X142204325Y-66388279D01*
X142226356Y-66357038D01*
X142258533Y-66312099D01*
X142299297Y-66255592D01*
X142347085Y-66189649D01*
X142400338Y-66116402D01*
X142457495Y-66037981D01*
X142516995Y-65956517D01*
X142577277Y-65874143D01*
X142636780Y-65792989D01*
X142693945Y-65715187D01*
X142747210Y-65642868D01*
X142795014Y-65578163D01*
X142835797Y-65523204D01*
X142867998Y-65480121D01*
X142890056Y-65451047D01*
X142900411Y-65438112D01*
X142904884Y-65433796D01*
X142909076Y-65431757D01*
X142912483Y-65434371D01*
X142915165Y-65443431D01*
X142917181Y-65460730D01*
X142918588Y-65488059D01*
X142919445Y-65527210D01*
X142919810Y-65579978D01*
X142919743Y-65648152D01*
X142919300Y-65733527D01*
X142918542Y-65837894D01*
X142917525Y-65963045D01*
X142917148Y-66007745D01*
X142916009Y-66128840D01*
X142914812Y-66230133D01*
X142913476Y-66313707D01*
X142911917Y-66381649D01*
X142910055Y-66436044D01*
X142907806Y-66478977D01*
X142905088Y-66512534D01*
X142901819Y-66538800D01*
X142897918Y-66559861D01*
X142893301Y-66577802D01*
X142885032Y-66604215D01*
X142861423Y-66666217D01*
X142835525Y-66719018D01*
X142810375Y-66756090D01*
X142809179Y-66757520D01*
X142807008Y-66761869D01*
X142809168Y-66765471D01*
X142817484Y-66768396D01*
X142833780Y-66770714D01*
X142859881Y-66772496D01*
X142897611Y-66773812D01*
X142948796Y-66774731D01*
X143015260Y-66775323D01*
X143098827Y-66775660D01*
X143201323Y-66775810D01*
X143324572Y-66775845D01*
X143856136Y-66775845D01*
X143817363Y-66718228D01*
X143811272Y-66709338D01*
X143800816Y-66694514D01*
X143791419Y-66680867D01*
X143783023Y-66667210D01*
X143775573Y-66652356D01*
X143769013Y-66635115D01*
X143763286Y-66614300D01*
X143758335Y-66588725D01*
X143754106Y-66557200D01*
X143750541Y-66518538D01*
X143747584Y-66471552D01*
X143745180Y-66415053D01*
X143743271Y-66347854D01*
X143741802Y-66268767D01*
X143740716Y-66176605D01*
X143739958Y-66070179D01*
X143739470Y-65948302D01*
X143739198Y-65809786D01*
X143739083Y-65653444D01*
X143739071Y-65478087D01*
X143739105Y-65282527D01*
X143739129Y-65065578D01*
X143739120Y-64942958D01*
X143739083Y-64737892D01*
X143739067Y-64553561D01*
X143739128Y-64388779D01*
X143739324Y-64242361D01*
X143739710Y-64113119D01*
X143740345Y-63999867D01*
X143741284Y-63901420D01*
X143742585Y-63816589D01*
X143744304Y-63744189D01*
X143746499Y-63683034D01*
X143749225Y-63631937D01*
X143752541Y-63589712D01*
X143756502Y-63555172D01*
X143761165Y-63527131D01*
X143766587Y-63504403D01*
X143772826Y-63485801D01*
X143779937Y-63470138D01*
X143787978Y-63456229D01*
X143797006Y-63442886D01*
X143807076Y-63428924D01*
X143818247Y-63413156D01*
X143858037Y-63355312D01*
X142798154Y-63355312D01*
X142836151Y-63418411D01*
X142850833Y-63443450D01*
X142865371Y-63471031D01*
X142877467Y-63499145D01*
X142887372Y-63529996D01*
X142895334Y-63565789D01*
X142901601Y-63608728D01*
X142906422Y-63661019D01*
X142910046Y-63724864D01*
X142912721Y-63802470D01*
X142914697Y-63896039D01*
X142916222Y-64007778D01*
X142917544Y-64139890D01*
X142918453Y-64259879D01*
X142918860Y-64376508D01*
X142918607Y-64471976D01*
X142917697Y-64546001D01*
X142916133Y-64598300D01*
X142913919Y-64628594D01*
X142911060Y-64636601D01*
X142908001Y-64633303D01*
X142889846Y-64611853D01*
X142860115Y-64575334D01*
X142820479Y-64525887D01*
X142772611Y-64465652D01*
X142718183Y-64396772D01*
X142658867Y-64321388D01*
X142596335Y-64241641D01*
X142532261Y-64159673D01*
X142468315Y-64077625D01*
X142406171Y-63997639D01*
X142347501Y-63921856D01*
X142293977Y-63852418D01*
X142247270Y-63791466D01*
X142209054Y-63741141D01*
X142181001Y-63703585D01*
X142164783Y-63680940D01*
X142119475Y-63608657D01*
X142079501Y-63528908D01*
X142057970Y-63460633D01*
X142054667Y-63403289D01*
X142059956Y-63355312D01*
X140928196Y-63355562D01*
X140967707Y-63386167D01*
X140977088Y-63393534D01*
X141040023Y-63447883D01*
X141108837Y-63515704D01*
X141185436Y-63598961D01*
X141271728Y-63699623D01*
X141288892Y-63720292D01*
X141329673Y-63769854D01*
X141379428Y-63830771D01*
X141436795Y-63901343D01*
X141500409Y-63979869D01*
X141568909Y-64064649D01*
X141640930Y-64153982D01*
X141715110Y-64246167D01*
X141730357Y-64265147D01*
X141790086Y-64339505D01*
X141864493Y-64432293D01*
X141936971Y-64522833D01*
X142006154Y-64609423D01*
X142070681Y-64690363D01*
X142129187Y-64763951D01*
X142180310Y-64828489D01*
X142222687Y-64882274D01*
X142254955Y-64923607D01*
X142275750Y-64950787D01*
X142283709Y-64962113D01*
X142281951Y-64966216D01*
X142269070Y-64986779D01*
X142244725Y-65023006D01*
X142210087Y-65073269D01*
X142166326Y-65135937D01*
X142114615Y-65209381D01*
X142056124Y-65291972D01*
X141992024Y-65382081D01*
X141923486Y-65478076D01*
X141851683Y-65578330D01*
X141777784Y-65681213D01*
X141702961Y-65785095D01*
X141628385Y-65888346D01*
X141555227Y-65989337D01*
X141484659Y-66086439D01*
X141417851Y-66178022D01*
X141355975Y-66262456D01*
X141300201Y-66338112D01*
X141251702Y-66403361D01*
X141211647Y-66456573D01*
X141181209Y-66496118D01*
X141160784Y-66521471D01*
X141114739Y-66575740D01*
X141064452Y-66632220D01*
X141017655Y-66682114D01*
X140926491Y-66775845D01*
X140228285Y-66775845D01*
X140297196Y-66775794D01*
X140395447Y-66775536D01*
X140484870Y-66775082D01*
X140563173Y-66774455D01*
X140628063Y-66773680D01*
X140677251Y-66772780D01*
X140708444Y-66771779D01*
X140719351Y-66770702D01*
X140718162Y-66767482D01*
X140708016Y-66749897D01*
X140690880Y-66723603D01*
X140682380Y-66711136D01*
X140673169Y-66697067D01*
X140665073Y-66682796D01*
X140658025Y-66666924D01*
X140651957Y-66648054D01*
X140646801Y-66624786D01*
X140642491Y-66595723D01*
X140638959Y-66559466D01*
X140636137Y-66514615D01*
X140633958Y-66459773D01*
X140632354Y-66393542D01*
X140631259Y-66314522D01*
X140630605Y-66221316D01*
X140630324Y-66112524D01*
X140630349Y-65986748D01*
X140630612Y-65842590D01*
X140631046Y-65678652D01*
X140631585Y-65493534D01*
X140632119Y-65314677D01*
X140632645Y-65155819D01*
X140633190Y-65016761D01*
X140633785Y-64896110D01*
X140634459Y-64792473D01*
X140635243Y-64704456D01*
X140636166Y-64630668D01*
X140637259Y-64569714D01*
X140638552Y-64520202D01*
X140640075Y-64480738D01*
X140641859Y-64449929D01*
X140643932Y-64426383D01*
X140646326Y-64408705D01*
X140649070Y-64395504D01*
X140652196Y-64385385D01*
X140655732Y-64376956D01*
X140659631Y-64368820D01*
X140679278Y-64331989D01*
X140698065Y-64301836D01*
X140699112Y-64300353D01*
X140713442Y-64278104D01*
X140719351Y-64265147D01*
X140718344Y-64264694D01*
X140701145Y-64263248D01*
X140664496Y-64261925D01*
X140610802Y-64260761D01*
X140542470Y-64259792D01*
X140461904Y-64259056D01*
X140371510Y-64258587D01*
X140273693Y-64258423D01*
X139828035Y-64258423D01*
X139824960Y-65435290D01*
X139821885Y-66612156D01*
X139795247Y-66671067D01*
X139783325Y-66695628D01*
X139766086Y-66725879D01*
X139752914Y-66743005D01*
X139744916Y-66751036D01*
X139737218Y-66765938D01*
X139445782Y-66765938D01*
X139445314Y-66673474D01*
X139444890Y-66558062D01*
X139444546Y-66427605D01*
X139444274Y-66281161D01*
X139444067Y-66117789D01*
X139443916Y-65936546D01*
X139443812Y-65736493D01*
X139443748Y-65516686D01*
X139443716Y-65276184D01*
X139443707Y-65014047D01*
X139443707Y-62822476D01*
X139482089Y-62784094D01*
X139509195Y-62760356D01*
X139536093Y-62748556D01*
X139572400Y-62745712D01*
X139624329Y-62745712D01*
X139624329Y-62833651D01*
X139626267Y-62883547D01*
X139645039Y-62993968D01*
X139682057Y-63095432D01*
X139735209Y-63186597D01*
X139802386Y-63266118D01*
X139881478Y-63332650D01*
X139970374Y-63384851D01*
X140066965Y-63421375D01*
X140169140Y-63440879D01*
X140274790Y-63442018D01*
X140381804Y-63423450D01*
X140488072Y-63383829D01*
X140585059Y-63325961D01*
X140670133Y-63251129D01*
X140738855Y-63163060D01*
X140789758Y-63064061D01*
X140821375Y-62956438D01*
X140832240Y-62842499D01*
X140832240Y-62745712D01*
X142452593Y-62745712D01*
X142663737Y-62745725D01*
X142867860Y-62745775D01*
X143051526Y-62745875D01*
X143215831Y-62746037D01*
X143361869Y-62746274D01*
X143490734Y-62746598D01*
X143603523Y-62747020D01*
X143701328Y-62747554D01*
X143785244Y-62748212D01*
X143856367Y-62749006D01*
X143915790Y-62749949D01*
X143964608Y-62751053D01*
X144003917Y-62752329D01*
X144034809Y-62753792D01*
X144058381Y-62755452D01*
X144075726Y-62757323D01*
X144087939Y-62759417D01*
X144096115Y-62761745D01*
X144101348Y-62764321D01*
X144107344Y-62767890D01*
X144114119Y-62771423D01*
X144120318Y-62774933D01*
X144125966Y-62779363D01*
X144131087Y-62785653D01*
X144135709Y-62794746D01*
X144139855Y-62807584D01*
X144143553Y-62825107D01*
X144146827Y-62848258D01*
X144149703Y-62877979D01*
X144152207Y-62915210D01*
X144154364Y-62960894D01*
X144156200Y-63015972D01*
X144157740Y-63081386D01*
X144159010Y-63158078D01*
X144160035Y-63246989D01*
X144160841Y-63349062D01*
X144160874Y-63355312D01*
X144161454Y-63465237D01*
G37*
%TD*%
M02*
